<?xml version="1.0" standalone="no"?>

<!DOCTYPE svg PUBLIC "-//W3C//DTD SVG 20010904//EN"

 "http://www.w3.org/TR/2001/REC-SVG-20010904/DTD/svg10.dtd">

<svg version="1.0" xmlns="http://www.w3.org/2000/svg"

 width="1958.000000pt" height="1614.000000pt" viewBox="0 0 1958.000000 1614.000000"

 preserveAspectRatio="xMidYMid meet">

<path fill="#33353e" stroke="none" d="
M171 1595

C153 1593 149 1593 146 1591

C143 1590 139 1589 137 1588

C134 1587 129 1585 125 1583

C121 1581 118 1580 117 1580

C116 1580 115 1579 114 1579

C113 1578 112 1577 111 1577

L110 1577

L110 1576

L110 1575

L108 1575

C107 1574 104 1573 103 1572

C101 1570 99 1569 99 1569

C98 1569 96 1567 94 1565

C92 1563 89 1561 88 1559

C87 1558 83 1555 81 1552

C78 1550 75 1547 74 1545

C71 1543 64 1534 63 1533

C63 1532 61 1529 59 1526

C53 1518 38 1489 36 1481

C35 1477 34 1473 34 1473

C31 1471 31 1462 30 1429

C30 1390 31 1384 38 1362

C42 1350 43 1347 47 1339

C49 1337 50 1334 51 1332

L52 1328

L53 1328

L54 1328

L55 1326

C55 1325 57 1322 59 1320

C60 1318 62 1316 62 1315

C62 1315 64 1313 66 1310

C68 1308 70 1305 70 1305

C70 1304 88 1286 89 1286

C89 1286 92 1284 96 1281

C99 1277 102 1275 103 1275

C103 1275 105 1274 107 1272

C113 1267 117 1264 118 1264

C119 1264 121 1263 123 1262

C125 1260 127 1259 127 1259

C128 1259 132 1257 137 1254

C143 1252 147 1250 148 1250

C148 1251 150 1250 152 1249

C154 1248 159 1247 163 1246

C167 1245 173 1244 176 1244

C184 1242 217 1242 228 1243

C232 1244 239 1245 242 1245

C245 1245 249 1246 252 1247

C254 1248 258 1250 262 1251

C265 1252 269 1254 271 1255

C274 1257 275 1257 282 1261

C286 1263 289 1265 290 1265

C290 1266 292 1267 294 1268

C295 1269 298 1271 299 1272

C301 1274 303 1275 304 1275

L306 1275

L306 1277

C306 1279 307 1280 310 1281

L314 1283

L314 1283

C315 1283 315 1265 315 1244

C317 1165 317 1153 319 1148

C322 1143 331 1135 335 1133

C340 1131 353 1131 359 1133

C363 1134 370 1140 371 1143

C371 1144 372 1145 373 1146

C375 1148 375 1185 373 1341

C372 1369 372 1404 372 1419

C371 1433 371 1448 370 1452

C369 1455 368 1461 368 1464

C367 1467 366 1470 365 1472

C364 1473 363 1477 362 1479

C362 1481 361 1486 359 1489

C358 1492 357 1495 357 1496

L357 1497

L356 1497

C356 1497 354 1499 354 1501

C352 1505 348 1512 347 1513

C347 1513 345 1516 344 1518

C342 1520 340 1523 339 1524

C338 1525 337 1526 337 1527

C337 1528 306 1559 305 1559

C304 1559 303 1560 302 1561

C299 1564 297 1565 295 1565

C294 1565 292 1566 291 1567

C289 1569 285 1572 280 1574

C275 1577 269 1580 267 1581

C264 1583 261 1584 259 1584

C258 1585 255 1586 254 1587

C249 1589 242 1591 240 1591

C239 1591 236 1591 235 1592

C224 1595 191 1597 171 1595

Z

M545 1590

C543 1590 538 1589 535 1588

C527 1587 519 1584 518 1583

C517 1582 516 1582 515 1582

C513 1582 509 1580 505 1578

C500 1576 496 1574 495 1574

L494 1574

L494 1573

C494 1573 491 1571 488 1570

C485 1569 482 1567 482 1566

C481 1565 480 1563 478 1562

C475 1561 444 1531 444 1529

C444 1529 443 1527 441 1526

C440 1524 439 1522 439 1522

C439 1521 438 1520 436 1518

C435 1516 432 1512 430 1509

C429 1505 426 1501 425 1499

C421 1490 418 1483 416 1478

C415 1474 414 1471 413 1470

C411 1466 410 1459 409 1454

C409 1452 409 1449 408 1449

C407 1446 406 1406 407 1394

C408 1390 408 1384 409 1379

C410 1371 411 1366 414 1359

C414 1357 416 1354 417 1351

C418 1347 419 1344 420 1343

C420 1341 421 1339 422 1338

C422 1337 424 1334 425 1331

C427 1329 428 1327 428 1326

C428 1325 432 1318 434 1316

C435 1315 436 1313 436 1313

C436 1312 438 1309 442 1306

C445 1303 447 1300 447 1300

C447 1298 465 1280 467 1280

C467 1280 470 1278 472 1276

C475 1273 477 1271 478 1271

L479 1271

L479 1270

C479 1270 480 1269 481 1268

C482 1268 485 1266 487 1265

C488 1264 490 1263 491 1262

C492 1262 495 1260 497 1258

C500 1256 502 1255 503 1255

C503 1255 506 1254 508 1253

C511 1252 515 1250 518 1248

C520 1247 526 1245 530 1244

C533 1244 539 1242 542 1241

C554 1238 587 1236 605 1239

C610 1239 617 1240 619 1240

C625 1241 633 1243 635 1244

C636 1245 638 1245 638 1245

C639 1245 640 1246 641 1247

C642 1247 643 1248 644 1248

C645 1248 658 1254 662 1256

C663 1257 665 1258 667 1258

C668 1259 670 1260 671 1261

C672 1262 673 1263 674 1263

C675 1263 676 1264 677 1265

C678 1266 680 1267 681 1268

C689 1272 705 1287 707 1292

C708 1294 709 1295 710 1296

C711 1296 713 1299 715 1302

C717 1305 719 1307 719 1307

L720 1307

L721 1310

C722 1312 723 1314 724 1314

C724 1315 726 1316 726 1318

C727 1319 728 1322 730 1324

C736 1332 748 1364 748 1372

C748 1374 748 1376 749 1377

C752 1383 753 1425 751 1441

C749 1453 745 1472 744 1475

C743 1477 742 1480 741 1483

C739 1489 730 1506 728 1508

L726 1510

L726 1511

L727 1512

L720 1521

C713 1531 711 1533 701 1542

C697 1546 694 1550 694 1550

L694 1551

L692 1551

L690 1551

L690 1552

L690 1553

L689 1553

C688 1553 686 1554 685 1556

C684 1557 682 1558 682 1558

C681 1558 679 1559 678 1561

C676 1563 670 1566 666 1569

C661 1571 656 1574 655 1575

C653 1576 651 1577 650 1577

C648 1578 644 1579 641 1581

C638 1582 633 1584 630 1584

C627 1585 624 1586 624 1587

C622 1589 607 1590 578 1591

C562 1591 547 1590 545 1590

Z

M942 1588

C931 1588 916 1586 912 1584

C910 1584 905 1582 901 1581

C896 1579 891 1577 888 1576

C886 1575 884 1574 883 1574

C882 1574 880 1573 878 1571

C876 1569 873 1568 873 1568

C872 1568 868 1565 863 1562

C857 1558 849 1552 840 1543

C832 1535 826 1528 826 1528

C826 1527 825 1526 824 1524

C822 1523 820 1519 818 1517

C817 1514 815 1511 814 1510

C813 1508 805 1493 805 1491

C805 1491 804 1490 804 1489

C803 1488 801 1485 800 1482

C800 1479 798 1476 798 1475

L797 1474

L797 1474

L798 1474

L797 1472

C796 1471 794 1465 793 1459

C791 1453 790 1447 789 1446

C788 1444 787 1429 787 1405

C787 1381 788 1367 791 1361

C792 1358 793 1355 793 1353

C793 1351 794 1349 794 1348

C794 1348 795 1345 796 1343

C798 1338 809 1314 812 1312

C812 1311 813 1310 813 1309

C813 1309 814 1307 816 1305

C818 1304 819 1302 819 1301

C819 1300 822 1297 825 1294

C829 1290 832 1286 833 1284

C834 1282 837 1280 838 1279

C840 1278 844 1274 849 1270

C853 1266 858 1262 861 1260

C863 1259 866 1258 867 1257

C868 1256 869 1255 870 1255

C871 1255 872 1254 873 1253

C874 1251 877 1250 879 1249

C881 1248 883 1247 884 1247

C884 1246 893 1242 895 1242

C896 1242 898 1241 900 1240

C905 1237 909 1236 929 1232

C938 1231 943 1230 963 1230

C988 1231 998 1232 1009 1237

C1012 1238 1015 1239 1016 1239

C1017 1239 1019 1240 1021 1241

C1033 1246 1035 1247 1040 1251

C1041 1252 1043 1253 1044 1253

C1045 1253 1054 1261 1056 1265

C1058 1267 1058 1269 1058 1278

C1058 1283 1058 1289 1057 1291

C1056 1297 1046 1305 1034 1308

C1031 1309 1030 1309 1026 1308

C1023 1307 1019 1306 1017 1305

C1014 1305 1012 1304 1011 1304

C1011 1303 1010 1303 1009 1303

C1008 1303 1006 1302 1005 1301

C1003 1300 998 1298 987 1293

C984 1292 977 1292 958 1292

C933 1292 932 1292 925 1295

C921 1296 917 1297 917 1297

C916 1298 914 1298 913 1298

L910 1299

L910 1300

L910 1301

L907 1301

C905 1302 902 1304 900 1305

C899 1307 896 1309 895 1309

C894 1310 890 1313 887 1316

C884 1319 879 1324 877 1327

C874 1329 872 1332 872 1332

C872 1334 865 1344 863 1345

C863 1345 862 1347 861 1348

C860 1350 859 1352 859 1352

C858 1353 856 1357 854 1363

L853 1369

L852 1369

L851 1369

L850 1374

C847 1385 846 1392 846 1409

C846 1427 847 1433 850 1443

C851 1446 852 1449 852 1450

C852 1451 853 1454 854 1456

C856 1459 858 1464 859 1467

C861 1470 863 1475 865 1477

C867 1479 870 1482 870 1483

C871 1485 877 1491 891 1503

C892 1504 895 1506 897 1507

C899 1508 901 1510 901 1510

C902 1511 904 1512 911 1516

C914 1517 917 1519 918 1520

C919 1520 923 1522 927 1523

C933 1524 939 1525 962 1525

C987 1525 989 1525 995 1523

C998 1522 1001 1520 1002 1520

C1002 1520 1004 1519 1006 1519

C1007 1518 1010 1517 1013 1516

C1015 1514 1017 1513 1018 1513

C1018 1513 1021 1512 1024 1510

C1029 1507 1029 1507 1036 1508

C1041 1509 1045 1510 1048 1512

C1051 1514 1053 1515 1053 1515

C1054 1515 1060 1521 1060 1522

L1060 1523

L1061 1523

L1062 1524

L1062 1536

C1063 1545 1062 1549 1061 1552

C1060 1554 1059 1556 1059 1556

C1059 1556 1058 1557 1058 1558

C1057 1559 1056 1561 1054 1562

C1053 1563 1050 1565 1049 1566

C1045 1570 1032 1576 1025 1578

C1022 1578 1019 1579 1019 1580

C1017 1581 1009 1583 1004 1584

C1000 1584 993 1585 985 1587

C979 1588 956 1589 942 1588

Z

M1142 1582

C1141 1581 1139 1580 1138 1578

C1137 1577 1135 1574 1133 1571

C1130 1566 1130 1565 1128 1542

C1128 1533 1127 1479 1127 1476

C1127 1476 1127 1474 1127 1474

C1127 1473 1127 1465 1127 1457

C1126 1448 1126 1430 1126 1418

C1125 1406 1125 1382 1125 1366

C1124 1349 1124 1328 1123 1319

C1121 1238 1121 1217 1121 1154

C1121 1135 1121 1135 1127 1128

C1134 1121 1134 1121 1145 1120

C1151 1120 1156 1120 1157 1120

C1157 1121 1158 1121 1159 1121

C1160 1121 1161 1122 1162 1122

C1163 1123 1165 1125 1167 1125

C1169 1127 1171 1129 1174 1135

C1178 1144 1178 1144 1178 1163

C1178 1174 1178 1184 1178 1184

C1179 1185 1179 1199 1180 1216

C1180 1232 1180 1250 1181 1257

C1181 1263 1181 1282 1181 1300

L1181 1333

L1184 1333

C1186 1333 1187 1332 1189 1329

C1191 1327 1192 1325 1192 1324

C1192 1324 1196 1320 1200 1316

C1204 1312 1208 1308 1208 1307

C1208 1306 1213 1301 1219 1294

C1225 1288 1232 1282 1233 1280

C1234 1279 1237 1276 1239 1275

C1242 1272 1249 1264 1249 1263

C1249 1261 1278 1233 1282 1231

C1286 1230 1303 1230 1308 1232

C1312 1234 1321 1243 1322 1247

C1324 1250 1324 1266 1322 1269

C1322 1271 1320 1273 1320 1275

C1319 1277 1318 1279 1317 1279

C1317 1279 1316 1280 1315 1282

C1314 1283 1310 1288 1306 1293

C1301 1297 1294 1304 1290 1308

L1283 1316

L1283 1317

L1283 1317

L1279 1321

C1277 1323 1272 1329 1267 1334

C1262 1339 1257 1344 1255 1346

C1254 1349 1246 1356 1239 1364

C1231 1371 1225 1378 1225 1378

C1225 1380 1220 1385 1208 1398

C1202 1404 1201 1405 1201 1409

C1201 1412 1201 1413 1204 1414

C1205 1415 1209 1418 1212 1422

C1224 1434 1235 1445 1237 1445

L1238 1445

L1238 1447

C1239 1448 1243 1453 1249 1458

C1254 1463 1258 1468 1258 1468

L1258 1469

L1259 1469

C1259 1469 1263 1473 1268 1477

C1280 1490 1288 1497 1289 1497

C1290 1497 1295 1502 1298 1506

C1299 1507 1302 1510 1305 1512

C1308 1515 1311 1519 1311 1520

C1312 1521 1314 1524 1316 1525

C1322 1531 1329 1539 1331 1545

C1334 1551 1333 1559 1330 1564

C1329 1566 1327 1570 1326 1573

C1324 1576 1322 1579 1321 1579

L1320 1579

L1320 1580

L1320 1581

L1316 1582

C1313 1583 1309 1584 1302 1583

L1293 1583

L1292 1582

L1292 1581

L1290 1581

C1290 1581 1284 1576 1278 1570

C1271 1564 1265 1558 1263 1557

C1262 1556 1259 1554 1257 1552

C1249 1543 1231 1525 1230 1525

C1228 1525 1218 1515 1214 1509

C1212 1506 1209 1503 1208 1502

L1206 1502

L1206 1501

C1206 1500 1205 1498 1200 1495

C1198 1493 1196 1491 1196 1491

C1196 1489 1190 1484 1188 1484

C1185 1484 1185 1488 1186 1502

C1187 1509 1187 1526 1187 1540

C1187 1563 1187 1564 1185 1570

C1182 1577 1177 1582 1174 1582

C1172 1582 1171 1582 1171 1583

C1170 1583 1164 1584 1156 1584

C1146 1584 1142 1583 1142 1582

Z

M1522 1580

C1520 1580 1515 1579 1511 1578

C1507 1577 1502 1576 1501 1576

C1499 1575 1497 1575 1495 1575

C1494 1575 1491 1574 1489 1573

C1487 1572 1483 1570 1480 1569

C1476 1568 1472 1567 1471 1566

C1470 1565 1466 1563 1463 1562

C1460 1561 1455 1559 1453 1557

C1450 1555 1445 1553 1443 1551

C1440 1550 1437 1548 1437 1548

C1437 1547 1435 1546 1434 1546

C1432 1545 1428 1542 1426 1540

C1423 1537 1420 1535 1420 1535

C1419 1535 1410 1526 1409 1524

C1409 1523 1407 1520 1404 1518

C1402 1515 1399 1512 1397 1509

C1396 1506 1394 1504 1394 1503

C1393 1502 1391 1500 1390 1497

C1389 1495 1387 1493 1387 1493

L1386 1493

L1386 1490

C1385 1489 1384 1486 1383 1484

C1381 1482 1380 1479 1379 1478

C1379 1476 1378 1475 1377 1474

C1377 1473 1376 1472 1376 1472

C1376 1471 1375 1469 1374 1466

C1372 1464 1370 1457 1369 1453

C1367 1448 1365 1443 1365 1442

C1362 1434 1360 1422 1359 1408

C1359 1400 1358 1393 1358 1392

L1357 1392

L1358 1390

C1358 1388 1360 1382 1360 1375

C1362 1361 1365 1351 1369 1339

C1371 1334 1373 1330 1373 1329

L1373 1328

L1374 1328

L1375 1328

L1375 1327

C1375 1326 1376 1324 1378 1321

C1379 1318 1380 1315 1380 1314

L1380 1313

L1381 1313

L1382 1313

L1382 1311

C1382 1310 1383 1309 1383 1308

C1384 1307 1386 1304 1387 1302

C1388 1300 1391 1297 1392 1296

C1393 1295 1394 1293 1394 1293

C1394 1290 1424 1261 1432 1256

C1436 1253 1440 1250 1440 1249

C1442 1248 1468 1235 1470 1235

C1471 1235 1472 1235 1473 1234

C1473 1234 1476 1232 1480 1231

C1483 1230 1486 1229 1488 1228

C1489 1228 1491 1227 1493 1227

C1495 1226 1499 1225 1503 1225

C1516 1221 1558 1223 1570 1227

C1572 1228 1576 1230 1580 1231

C1584 1231 1594 1236 1604 1241

C1613 1245 1621 1249 1622 1249

C1624 1250 1641 1263 1641 1264

L1641 1265

L1643 1265

C1645 1265 1666 1285 1666 1287

C1666 1288 1667 1289 1668 1290

C1670 1292 1678 1304 1678 1305

C1678 1305 1679 1306 1680 1307

C1684 1310 1685 1316 1685 1326

C1685 1335 1685 1336 1681 1341

C1680 1343 1678 1346 1678 1347

C1678 1349 1660 1366 1658 1366

C1658 1366 1655 1368 1654 1370

C1648 1376 1643 1381 1640 1383

C1638 1383 1629 1392 1621 1401

C1612 1410 1604 1417 1603 1417

C1602 1417 1573 1445 1573 1447

L1573 1448

L1571 1449

C1569 1450 1564 1454 1560 1458

C1558 1459 1555 1461 1554 1462

C1553 1463 1552 1463 1552 1464

C1552 1464 1547 1470 1541 1476

C1526 1490 1526 1490 1525 1490

C1525 1490 1521 1493 1517 1497

C1513 1501 1509 1504 1508 1504

C1507 1504 1505 1506 1504 1508

L1501 1511

L1502 1513

C1504 1517 1513 1518 1542 1517

C1561 1517 1566 1517 1576 1511

C1579 1510 1583 1508 1584 1508

C1586 1507 1590 1506 1593 1504

C1595 1503 1598 1502 1599 1502

C1599 1502 1602 1501 1604 1500

C1609 1497 1621 1497 1624 1500

C1625 1501 1627 1503 1629 1503

C1630 1504 1633 1506 1634 1508

C1636 1510 1638 1512 1638 1513

C1640 1515 1642 1524 1643 1530

C1643 1534 1643 1537 1641 1541

C1639 1546 1637 1548 1632 1552

C1619 1563 1589 1575 1572 1578

C1567 1579 1562 1580 1561 1580

C1558 1581 1526 1581 1522 1580

Z

M1769 1577

C1759 1572 1753 1564 1751 1552

C1751 1550 1750 1539 1750 1528

C1749 1517 1749 1505 1748 1503

C1748 1501 1748 1494 1748 1489

C1747 1483 1747 1474 1746 1470

C1746 1465 1746 1457 1746 1453

C1745 1449 1745 1437 1744 1426

C1742 1394 1743 1362 1745 1352

C1746 1347 1747 1343 1748 1342

C1748 1341 1748 1339 1749 1338

C1749 1336 1750 1334 1751 1332

L1752 1329

L1751 1329

L1751 1329

L1752 1328

C1752 1328 1753 1325 1754 1323

C1756 1321 1757 1317 1759 1315

C1760 1313 1761 1311 1761 1310

C1761 1310 1762 1307 1764 1305

C1765 1303 1766 1301 1766 1300

C1766 1300 1767 1298 1768 1298

C1769 1297 1770 1295 1770 1294

C1770 1293 1771 1291 1773 1290

C1775 1288 1778 1285 1780 1283

C1784 1277 1796 1264 1801 1261

C1803 1260 1806 1257 1808 1256

C1815 1250 1820 1246 1821 1246

C1822 1246 1824 1245 1827 1243

C1832 1239 1835 1237 1839 1236

C1840 1236 1842 1235 1843 1235

C1846 1232 1859 1227 1866 1226

C1869 1225 1873 1224 1874 1224

C1875 1223 1885 1222 1900 1221

C1906 1221 1911 1221 1914 1222

C1917 1222 1920 1223 1920 1222

L1921 1222

L1929 1230

C1933 1234 1937 1238 1937 1239

L1937 1241

L1938 1241

L1939 1241

L1939 1251

C1939 1265 1938 1267 1929 1275

C1928 1276 1926 1277 1925 1277

C1924 1277 1923 1277 1922 1278

C1922 1279 1913 1280 1892 1283

C1882 1284 1876 1286 1873 1287

C1872 1287 1870 1289 1868 1289

L1864 1291

L1864 1292

L1864 1293

L1862 1293

C1861 1293 1859 1294 1858 1295

C1857 1296 1855 1297 1854 1297

C1854 1297 1853 1298 1852 1298

C1852 1299 1850 1301 1848 1302

C1842 1306 1819 1329 1819 1331

L1819 1332

L1818 1333

L1816 1333

L1816 1334

C1816 1335 1815 1337 1815 1339

C1814 1340 1813 1342 1813 1343

C1813 1344 1813 1345 1812 1345

C1809 1347 1805 1360 1803 1377

C1802 1391 1802 1413 1805 1458

C1806 1460 1806 1470 1806 1479

C1807 1487 1808 1499 1808 1505

C1810 1523 1810 1561 1809 1562

C1808 1563 1807 1566 1806 1568

C1804 1570 1802 1573 1800 1574

C1793 1579 1792 1579 1783 1579

C1775 1579 1773 1579 1769 1577

Z

M781 1055

C755 1054 728 1054 721 1053

L708 1053

L708 1052

L708 1051

L701 1051

C697 1050 691 1050 689 1049

C686 1048 681 1048 679 1047

C676 1047 673 1047 672 1046

C670 1046 670 1046 660 1044

C655 1043 651 1043 651 1042

C650 1042 627 1036 622 1035

C617 1035 611 1033 610 1032

C610 1031 605 1030 600 1029

C596 1028 591 1026 590 1026

C589 1025 587 1025 587 1025

C586 1025 583 1024 581 1023

C578 1022 573 1020 570 1019

C566 1018 561 1016 560 1015

C558 1014 556 1013 555 1013

C553 1013 552 1013 552 1012

C551 1011 550 1011 549 1011

C549 1011 547 1010 545 1009

C544 1008 540 1007 538 1006

C536 1005 533 1004 532 1004

C530 1002 502 988 500 988

L499 988

L499 987

C499 986 497 984 494 983

C491 982 488 980 488 980

C488 979 486 978 483 976

C480 975 477 973 476 973

C476 972 473 971 470 969

C467 968 464 966 463 964

C463 963 461 962 459 961

C457 960 455 958 453 956

C451 955 449 953 449 953

C448 953 446 952 444 950

C443 949 439 946 436 944

C433 942 431 940 431 939

C431 939 430 938 428 937

C426 936 414 926 410 920

C409 919 405 915 400 911

C386 897 375 885 375 884

C375 883 370 877 369 877

C368 877 364 873 364 871

C364 871 363 869 361 867

C359 865 357 862 356 860

C353 856 349 851 348 849

C347 848 346 847 346 846

C346 846 345 844 344 843

C343 842 342 840 342 840

C342 839 340 838 339 836

C335 831 331 824 329 821

C329 819 327 816 325 814

C323 811 322 808 321 807

C321 805 317 795 312 786

C300 761 298 755 297 748

C296 748 296 747 296 746

C295 746 295 745 295 744

C295 744 294 741 293 739

C292 736 290 730 289 726

C288 721 286 714 285 710

C283 704 282 698 279 683

C279 681 278 677 278 674

C277 671 277 668 277 667

C276 665 276 663 276 661

C275 659 275 655 275 652

C274 649 274 642 273 637

C272 631 272 613 272 592

C273 558 273 554 275 539

C276 535 276 528 277 525

C277 521 277 517 278 517

C278 516 312 516 400 515

L418 515

L418 513

C419 511 420 431 420 366

L421 350

L422 349

C424 349 502 348 550 348

C565 347 579 347 581 347

L583 347

L583 268

C583 225 583 189 583 188

C583 188 604 188 629 188

C654 187 689 187 706 186

C723 186 746 186 756 186

C766 185 788 185 804 185

C819 184 849 184 870 183

C890 183 907 183 907 183

C907 182 907 153 907 126

C906 113 906 89 905 72

C905 55 905 38 904 35

L904 28

L905 28

C906 27 921 27 938 27

C1002 25 1015 25 1035 25

C1046 24 1064 24 1076 23

C1088 23 1098 23 1099 24

C1100 24 1100 32 1100 52

C1101 66 1101 90 1102 104

C1102 129 1102 135 1103 180

C1104 198 1104 210 1105 261

C1106 286 1107 328 1107 334

L1107 338

L1134 338

L1161 337

L1162 336

L1162 335

L1164 335

L1165 335

L1165 336

L1165 337

L1191 337

C1218 336 1239 335 1245 335

C1253 334 1269 333 1270 334

L1272 334

L1272 347

C1272 355 1272 372 1273 387

C1273 402 1273 418 1273 424

C1273 430 1274 436 1274 438

C1275 440 1275 455 1276 471

C1276 486 1276 500 1277 500

C1277 500 1299 500 1315 500

C1323 499 1341 499 1356 498

C1370 498 1384 497 1388 497

C1391 496 1397 495 1402 495

C1407 494 1412 494 1415 493

C1417 493 1422 491 1427 491

C1431 490 1436 489 1439 488

C1441 487 1444 487 1445 487

C1445 487 1448 486 1450 485

C1453 484 1455 483 1456 483

C1458 483 1472 479 1477 477

C1479 476 1482 475 1483 475

C1484 474 1487 473 1489 472

C1492 471 1495 469 1498 468

C1504 466 1507 465 1507 464

L1507 463

L1509 463

C1510 463 1514 461 1516 459

C1517 459 1518 458 1519 458

C1521 458 1529 452 1529 450

L1530 449

L1529 447

C1528 447 1527 446 1527 445

C1527 445 1526 444 1524 443

C1522 442 1521 441 1521 441

C1521 440 1520 437 1518 435

C1513 429 1512 427 1511 424

C1510 422 1508 419 1506 417

C1504 415 1502 410 1501 406

C1500 402 1498 397 1498 396

C1497 394 1496 391 1495 389

C1495 387 1494 385 1494 385

C1492 383 1487 361 1486 353

C1486 349 1486 346 1485 346

C1485 345 1485 281 1485 280

C1486 280 1486 277 1486 275

C1488 267 1489 259 1490 258

C1490 257 1491 254 1492 251

C1494 243 1498 231 1502 224

C1502 222 1503 220 1503 219

C1503 218 1504 216 1506 214

C1507 212 1510 208 1511 206

C1512 203 1515 200 1517 198

C1519 196 1521 193 1521 193

C1521 192 1522 190 1524 189

C1525 188 1527 185 1528 184

C1529 180 1534 175 1536 175

C1536 175 1540 178 1545 183

C1549 187 1553 190 1553 190

C1554 190 1564 197 1567 200

C1568 202 1570 203 1570 203

C1571 203 1575 206 1579 211

C1584 215 1588 218 1588 218

C1590 218 1606 234 1607 236

C1607 237 1610 241 1614 245

C1622 253 1623 255 1623 256

C1623 256 1624 257 1625 258

C1625 259 1628 262 1630 265

C1632 269 1635 273 1637 275

C1640 278 1651 300 1651 302

C1651 302 1653 305 1654 309

C1658 318 1661 325 1662 331

C1665 343 1665 347 1666 348

L1667 350

L1672 350

C1674 349 1679 348 1681 347

C1696 342 1712 340 1729 340

C1730 340 1741 340 1753 340

C1779 340 1797 341 1804 344

C1805 344 1807 345 1808 346

C1810 346 1812 347 1813 347

C1815 347 1816 347 1817 348

C1817 349 1818 349 1820 349

C1822 349 1824 349 1825 350

C1826 350 1831 353 1836 355

C1840 356 1847 359 1850 361

C1853 362 1856 363 1857 363

L1858 363

L1858 364

L1858 365

L1860 365

C1861 366 1863 367 1864 367

C1865 368 1869 370 1872 371

C1879 374 1880 375 1880 379

L1880 383

L1879 383

L1878 383

L1878 384

C1878 385 1875 392 1870 401

C1863 417 1855 429 1854 429

L1853 429

L1853 431

C1853 432 1851 435 1848 438

C1845 441 1843 444 1843 444

C1843 445 1827 461 1826 461

C1825 461 1823 463 1821 465

C1818 468 1815 470 1814 470

C1813 471 1811 472 1810 474

C1809 475 1804 478 1800 480

C1796 482 1792 484 1792 484

C1791 485 1785 489 1783 489

C1780 490 1774 493 1771 495

C1769 496 1765 497 1762 498

L1757 500

L1757 499

L1757 499

L1753 501

C1751 502 1748 503 1747 503

C1746 503 1744 504 1741 504

C1739 505 1736 506 1734 506

C1732 507 1725 508 1718 509

C1704 512 1692 514 1676 515

C1669 515 1660 515 1655 516

C1650 516 1644 517 1642 516

C1639 516 1635 519 1635 523

C1634 525 1633 530 1632 534

C1630 537 1628 543 1627 546

C1626 549 1624 553 1623 556

C1622 558 1621 560 1621 560

C1621 561 1620 564 1618 567

C1617 571 1615 575 1614 577

C1613 579 1612 582 1610 585

C1609 587 1608 590 1608 590

C1608 591 1608 592 1607 592

C1607 592 1603 599 1600 606

C1596 613 1593 620 1592 621

C1590 626 1589 627 1589 628

L1589 630

L1588 630

L1587 630

L1587 632

C1587 632 1586 635 1585 637

C1583 639 1582 641 1582 642

C1582 642 1581 644 1580 645

C1578 646 1577 648 1577 649

C1577 651 1572 659 1571 661

C1570 662 1568 665 1566 669

C1564 672 1562 675 1562 675

L1561 675

L1561 676

C1561 677 1560 679 1559 680

C1557 682 1556 684 1556 685

L1556 686

L1555 686

L1554 686

L1554 689

L1553 692

L1552 692

C1552 692 1549 696 1546 700

C1543 704 1540 708 1540 709

C1539 710 1538 711 1538 711

C1538 712 1537 713 1536 714

C1534 717 1531 721 1523 733

C1520 737 1516 742 1514 744

C1513 745 1512 746 1512 747

C1512 747 1510 750 1508 752

C1506 754 1503 757 1502 759

C1501 761 1498 764 1496 766

C1494 768 1491 771 1491 773

C1490 775 1486 779 1482 783

C1477 787 1474 791 1474 792

L1474 793

L1472 793

L1471 793

L1470 795

C1469 798 1443 825 1441 825

C1440 825 1435 830 1429 835

C1423 841 1416 848 1413 850

C1409 853 1405 856 1404 858

C1402 860 1401 861 1400 861

C1399 861 1397 863 1395 865

C1393 867 1390 869 1390 869

L1388 869

L1388 870

L1388 871

L1387 871

C1386 871 1385 872 1383 874

C1381 876 1380 877 1379 877

C1378 877 1377 878 1376 880

C1375 881 1372 883 1371 884

C1369 885 1367 886 1365 888

C1364 889 1363 890 1363 890

C1362 890 1356 894 1355 895

C1352 898 1345 903 1344 903

C1342 903 1333 909 1329 913

C1328 914 1324 916 1321 918

C1318 919 1316 920 1315 921

C1315 922 1312 923 1309 925

C1306 927 1303 928 1303 929

C1302 929 1298 932 1293 934

C1287 937 1283 940 1282 941

C1281 941 1279 943 1276 944

C1267 948 1258 952 1257 953

C1253 955 1239 963 1233 966

C1231 966 1230 967 1229 967

C1228 967 1227 968 1225 969

C1224 970 1220 971 1218 972

C1216 973 1213 974 1213 974

C1212 975 1203 979 1202 979

C1201 979 1198 980 1195 982

C1191 984 1188 985 1187 985

C1187 985 1185 986 1183 987

C1179 989 1179 989 1169 992

C1166 992 1163 993 1162 994

C1162 995 1157 996 1152 998

C1131 1005 1128 1006 1127 1007

C1126 1008 1124 1008 1123 1008

C1121 1008 1120 1008 1120 1009

C1119 1009 1117 1010 1114 1010

C1112 1011 1108 1012 1106 1013

C1100 1016 1095 1017 1092 1017

C1090 1017 1088 1017 1087 1018

C1084 1019 1073 1023 1069 1024

C1066 1024 1063 1025 1061 1026

C1057 1027 1045 1029 1036 1030

C1035 1031 1030 1032 1026 1033

C1022 1034 1017 1035 1015 1035

C1013 1036 1008 1037 1004 1037

C994 1039 990 1040 982 1041

C978 1041 971 1043 966 1044

C953 1046 952 1046 944 1047

C940 1047 935 1048 933 1048

C930 1048 923 1049 917 1050

C910 1051 902 1051 900 1052

C898 1053 889 1053 881 1053

C872 1054 858 1054 848 1055

C838 1055 830 1055 829 1055

C828 1055 806 1055 781 1055

Z

"/>

<path fill="#fbfbf9" stroke="none" d="
M158 1586

C147 1584 139 1582 134 1579

C133 1579 131 1578 130 1578

C128 1578 112 1569 105 1564

C97 1559 74 1537 71 1531

C69 1529 67 1527 67 1526

C66 1525 63 1522 62 1519

C60 1516 57 1511 55 1508

C54 1504 52 1500 51 1499

C50 1498 49 1495 48 1493

C46 1490 45 1485 40 1468

C37 1459 35 1439 36 1423

C36 1408 38 1386 41 1378

C41 1375 43 1371 43 1369

C46 1358 56 1336 62 1328

C64 1325 66 1322 66 1321

C67 1320 69 1317 71 1315

C73 1313 74 1311 74 1311

C74 1309 88 1295 91 1293

C92 1293 96 1289 101 1286

C105 1282 109 1278 110 1278

C111 1277 113 1276 114 1275

C120 1271 131 1265 138 1262

C147 1257 157 1254 175 1251

C186 1249 190 1249 207 1250

C228 1250 249 1253 254 1256

C256 1256 257 1257 258 1257

C260 1257 283 1269 286 1271

C287 1272 288 1273 289 1273

L291 1274

L291 1275

L291 1276

L290 1276

C289 1276 282 1273 274 1269

C260 1262 248 1258 235 1256

C225 1254 185 1253 175 1255

C168 1256 138 1266 131 1270

C128 1271 123 1274 120 1276

C116 1279 113 1281 112 1282

C105 1286 101 1290 89 1302

C81 1309 74 1317 73 1319

C63 1332 62 1334 56 1347

C38 1381 34 1445 48 1481

C54 1497 70 1524 78 1533

C79 1534 82 1538 84 1541

C86 1544 89 1547 91 1548

C93 1549 97 1551 99 1554

C102 1556 106 1559 107 1560

C108 1561 112 1564 115 1565

C117 1567 122 1570 124 1571

C126 1572 130 1573 133 1574

C140 1577 151 1581 159 1582

C167 1584 220 1584 230 1582

C237 1581 248 1577 254 1575

C256 1574 258 1573 258 1573

C260 1573 278 1564 279 1563

C279 1562 281 1561 282 1560

C284 1560 288 1557 290 1556

C292 1554 295 1552 296 1551

C301 1549 321 1530 323 1527

C323 1526 325 1523 327 1522

C328 1520 331 1518 332 1516

C332 1514 334 1512 334 1512

C335 1511 341 1502 345 1494

C346 1491 348 1488 348 1487

C350 1484 355 1468 356 1464

C359 1448 360 1441 361 1413

C363 1370 362 1173 361 1165

C359 1156 357 1153 351 1150

C345 1147 340 1148 335 1154

C331 1159 329 1165 328 1181

C327 1197 327 1198 327 1228

C326 1243 326 1255 325 1256

L325 1257

L324 1256

C323 1255 323 1240 323 1206

C323 1156 323 1156 325 1152

C326 1150 330 1146 332 1144

C337 1139 337 1139 346 1139

C357 1139 362 1141 365 1148

C367 1153 367 1153 367 1234

C366 1279 366 1328 366 1343

C365 1357 365 1384 365 1402

C364 1420 364 1438 363 1443

C363 1453 360 1465 358 1471

C357 1473 356 1477 355 1480

C353 1488 343 1508 335 1518

C329 1526 305 1551 303 1551

C302 1551 301 1552 300 1553

C299 1554 297 1555 296 1556

C295 1556 293 1557 292 1559

C291 1560 288 1562 285 1563

C282 1565 279 1567 278 1568

C272 1572 250 1581 235 1584

C231 1585 226 1587 224 1587

C223 1588 209 1588 194 1588

C173 1588 165 1587 158 1586

Z

M568 1585

C564 1584 555 1583 547 1583

C536 1581 530 1580 521 1577

C509 1573 497 1567 492 1564

C491 1563 487 1560 484 1558

C481 1557 472 1549 465 1542

C455 1532 450 1526 444 1516

C437 1506 426 1486 423 1478

C420 1470 415 1452 415 1444

C414 1436 414 1397 414 1393

C415 1391 415 1387 415 1384

C416 1381 416 1376 417 1373

C419 1364 426 1344 429 1339

C433 1330 444 1313 446 1311

C447 1310 449 1308 450 1306

C453 1301 468 1286 474 1283

C476 1281 479 1279 480 1277

C482 1275 484 1274 484 1274

C485 1274 490 1271 498 1265

C504 1261 507 1260 512 1258

C515 1257 520 1255 524 1254

C539 1247 556 1245 584 1245

C612 1245 622 1247 644 1255

C652 1258 670 1268 674 1271

C675 1272 676 1273 677 1273

C677 1273 679 1275 681 1277

C683 1279 686 1281 687 1282

C691 1283 701 1293 702 1297

C703 1298 705 1301 706 1302

C708 1303 709 1305 709 1306

C709 1306 710 1308 711 1309

C715 1312 722 1322 723 1327

C724 1330 726 1333 727 1334

C730 1336 731 1339 733 1347

C735 1351 737 1357 738 1359

C742 1372 745 1391 745 1415

C745 1434 744 1445 741 1459

C740 1461 740 1465 739 1468

C739 1470 738 1472 737 1473

C737 1473 736 1475 736 1477

C734 1482 722 1506 717 1513

C714 1517 712 1520 712 1521

C712 1522 688 1546 686 1546

C684 1547 682 1548 681 1550

C681 1551 679 1552 679 1552

C678 1552 676 1554 674 1556

C670 1559 635 1577 632 1577

C631 1577 627 1578 623 1579

C616 1582 604 1584 594 1584

C578 1586 574 1586 568 1585

Z

M601 1580

C605 1579 610 1579 612 1578

C614 1578 618 1576 622 1575

C633 1573 660 1561 662 1558

C662 1557 665 1556 668 1554

C671 1553 674 1551 676 1549

C677 1547 679 1546 679 1546

C681 1546 707 1520 708 1517

C708 1516 710 1514 711 1513

C713 1512 715 1509 716 1507

C717 1504 718 1502 719 1501

C722 1498 730 1481 732 1473

C733 1469 735 1463 736 1460

C737 1457 737 1454 738 1453

C738 1452 738 1449 739 1446

C739 1442 740 1438 740 1435

C742 1428 741 1401 739 1389

C736 1372 736 1370 731 1358

C728 1347 720 1331 714 1322

C712 1320 711 1316 710 1315

L709 1312

L708 1312

C707 1312 706 1311 705 1309

C704 1306 680 1281 678 1281

C678 1281 675 1279 671 1276

C668 1273 664 1271 664 1271

C663 1271 662 1270 660 1269

C655 1264 636 1257 617 1252

C603 1249 575 1248 559 1250

C553 1251 548 1251 548 1251

C547 1251 528 1257 519 1260

C512 1262 500 1268 499 1270

C498 1270 497 1271 496 1271

C496 1271 492 1273 489 1275

C486 1278 483 1280 481 1281

C480 1282 477 1285 475 1287

C473 1289 470 1291 468 1293

C466 1294 463 1296 462 1298

C461 1299 458 1303 454 1307

C448 1314 441 1325 436 1334

C434 1337 432 1341 431 1342

C429 1345 423 1363 421 1372

C419 1379 419 1383 418 1410

C418 1427 418 1443 419 1447

C420 1456 424 1470 426 1474

C427 1476 428 1478 428 1479

C428 1481 440 1504 443 1508

C444 1510 446 1513 448 1516

C450 1518 452 1521 452 1521

C452 1521 454 1524 456 1526

C458 1528 460 1530 461 1531

C461 1533 472 1545 474 1545

C474 1545 477 1547 480 1550

C483 1552 487 1556 489 1557

C491 1558 494 1560 496 1562

C499 1564 507 1568 522 1573

C526 1574 530 1576 531 1576

C532 1577 534 1577 547 1579

C551 1579 554 1580 555 1580

C556 1581 592 1581 601 1580

Z

M929 1580

C927 1580 924 1579 922 1579

C916 1579 894 1571 883 1566

C867 1558 858 1552 845 1538

C838 1531 832 1525 832 1525

C832 1524 831 1522 830 1520

C828 1519 827 1517 827 1516

C827 1516 826 1515 825 1514

C825 1513 823 1510 821 1507

C819 1504 818 1501 817 1501

C816 1500 811 1491 809 1486

C809 1483 807 1478 805 1473

C795 1449 794 1440 794 1403

C795 1369 795 1373 797 1364

C807 1333 809 1327 814 1321

C815 1320 817 1317 818 1315

C819 1312 821 1310 821 1310

L822 1310

L823 1308

C824 1304 852 1276 864 1266

C866 1265 869 1262 872 1261

C874 1260 877 1259 878 1258

C879 1256 883 1254 887 1253

C890 1251 893 1249 894 1249

C895 1249 899 1247 904 1246

C908 1244 912 1242 914 1242

C920 1239 937 1238 960 1238

C973 1238 984 1238 985 1238

C985 1239 989 1239 994 1240

C1005 1242 1025 1249 1035 1255

C1040 1258 1044 1261 1047 1264

C1050 1267 1050 1268 1050 1277

C1051 1286 1051 1287 1049 1291

C1048 1293 1045 1296 1043 1297

C1040 1299 1039 1299 1029 1299

C1015 1298 1013 1298 1006 1294

C1001 1291 995 1289 988 1287

L985 1286

L987 1285

C988 1284 991 1285 998 1287

C1003 1288 1009 1289 1011 1290

C1012 1290 1014 1291 1015 1292

C1016 1292 1020 1292 1025 1292

C1038 1291 1042 1286 1041 1274

C1040 1269 1040 1268 1035 1264

C1033 1261 1029 1259 1028 1258

C1026 1257 1021 1255 1017 1252

C1013 1250 1008 1248 1006 1248

C980 1242 979 1242 959 1242

C941 1242 937 1242 920 1245

C911 1247 887 1256 883 1259

C882 1260 879 1262 877 1263

C872 1266 870 1268 861 1275

C859 1277 857 1278 856 1278

C854 1278 834 1299 832 1302

C831 1304 830 1306 828 1307

C827 1309 825 1311 825 1312

C824 1313 822 1316 820 1319

C816 1324 810 1337 810 1339

C810 1339 809 1341 808 1343

C806 1346 800 1369 799 1375

C799 1377 799 1381 798 1382

C795 1398 796 1429 802 1450

C802 1454 803 1458 804 1460

C806 1470 817 1493 824 1505

C827 1508 830 1514 832 1517

C837 1524 861 1548 868 1552

C871 1554 874 1556 875 1557

C877 1559 892 1566 899 1569

C903 1570 911 1572 917 1574

C926 1576 928 1576 955 1576

C971 1576 985 1576 987 1575

C1002 1573 1017 1569 1021 1567

C1022 1566 1025 1565 1029 1563

C1036 1559 1040 1556 1044 1551

C1046 1548 1046 1546 1046 1540

C1046 1531 1045 1529 1040 1526

C1034 1523 1024 1523 1012 1527

C988 1535 980 1536 960 1536

C936 1536 922 1532 900 1521

C895 1518 889 1515 888 1514

C887 1512 884 1511 883 1510

C881 1509 876 1504 871 1499

C848 1476 836 1448 835 1417

C835 1414 835 1410 834 1410

C834 1408 837 1383 839 1375

C840 1370 843 1363 844 1360

C846 1356 848 1352 848 1351

C849 1350 850 1348 851 1347

C852 1345 853 1343 854 1342

C856 1337 858 1334 859 1333

C860 1332 862 1331 862 1329

C864 1326 886 1302 888 1302

C889 1302 890 1301 891 1300

C893 1299 898 1296 904 1292

C906 1291 913 1288 920 1286

C930 1283 934 1282 947 1281

C960 1280 965 1280 973 1281

L983 1282

L983 1283

L983 1284

L960 1283

C939 1283 936 1283 934 1284

C933 1285 930 1286 929 1286

C927 1286 926 1286 926 1287

C925 1288 924 1288 923 1288

C919 1288 904 1295 898 1299

C895 1302 891 1304 891 1304

C889 1304 867 1326 864 1332

C862 1335 860 1338 860 1338

C860 1338 859 1339 858 1340

C857 1341 847 1361 847 1363

C847 1364 846 1366 845 1368

C841 1377 839 1390 839 1409

C839 1426 840 1437 843 1446

C847 1458 848 1462 852 1469

C855 1472 858 1477 859 1480

C862 1485 880 1504 885 1508

C895 1514 898 1516 908 1521

C918 1526 922 1528 934 1531

C936 1532 948 1532 962 1532

C983 1532 986 1532 993 1530

C1006 1526 1010 1525 1024 1518

C1033 1513 1044 1515 1051 1522

C1055 1526 1055 1526 1055 1535

C1055 1541 1055 1546 1054 1548

C1051 1556 1043 1562 1026 1570

C1020 1573 1014 1574 995 1578

C992 1579 988 1580 987 1580

C983 1581 933 1581 929 1580

Z

M1298 1576

C1294 1576 1292 1575 1286 1568

C1283 1565 1278 1560 1275 1558

C1273 1556 1271 1554 1271 1553

L1271 1552

L1272 1552

C1273 1552 1277 1555 1281 1559

C1288 1565 1292 1567 1301 1567

C1307 1567 1308 1567 1311 1564

C1314 1562 1314 1561 1314 1551

C1314 1541 1314 1541 1310 1535

C1308 1532 1293 1516 1274 1498

C1221 1444 1207 1430 1207 1429

L1207 1428

L1208 1429

C1209 1429 1226 1446 1246 1465

C1266 1485 1282 1501 1283 1501

C1284 1501 1307 1524 1307 1525

C1307 1526 1310 1530 1314 1534

C1324 1544 1325 1547 1325 1554

C1324 1566 1317 1576 1310 1576

C1308 1576 1306 1576 1305 1576

C1303 1577 1300 1576 1298 1576

Z

M1143 1574

C1136 1566 1136 1560 1135 1506

C1134 1491 1134 1466 1133 1449

C1133 1432 1133 1417 1133 1415

C1133 1412 1132 1398 1132 1384

C1131 1358 1130 1324 1129 1272

C1129 1259 1129 1224 1128 1194

C1128 1139 1128 1139 1130 1135

C1135 1129 1139 1127 1147 1127

C1153 1127 1156 1128 1159 1129

C1167 1133 1170 1139 1170 1159

C1171 1166 1171 1177 1171 1184

C1172 1195 1173 1217 1174 1273

L1174 1304

L1173 1303

C1172 1301 1170 1276 1170 1255

C1169 1239 1168 1210 1168 1201

C1167 1198 1167 1188 1167 1179

C1166 1170 1165 1159 1164 1155

C1163 1148 1162 1147 1158 1143

C1153 1137 1148 1136 1142 1139

C1138 1141 1137 1142 1135 1146

C1132 1152 1132 1152 1132 1199

C1132 1224 1132 1261 1133 1281

C1134 1301 1134 1340 1134 1369

C1135 1398 1135 1424 1135 1426

C1136 1428 1136 1451 1137 1475

C1137 1499 1138 1527 1138 1536

C1140 1551 1140 1554 1143 1559

C1144 1562 1147 1565 1149 1567

C1152 1570 1153 1570 1159 1569

C1165 1569 1166 1568 1169 1565

C1173 1562 1175 1556 1175 1552

C1175 1548 1177 1521 1178 1517

L1178 1512

L1179 1512

C1179 1513 1180 1524 1180 1537

C1180 1562 1180 1562 1177 1568

C1174 1575 1172 1576 1157 1576

C1146 1576 1145 1576 1143 1574

Z

M1528 1574

C1528 1573 1524 1573 1519 1572

C1509 1571 1499 1569 1493 1567

C1491 1566 1487 1564 1484 1563

C1481 1563 1476 1560 1473 1559

C1470 1557 1466 1556 1464 1556

C1462 1555 1460 1554 1458 1552

C1456 1551 1453 1549 1449 1547

C1446 1546 1442 1543 1440 1542

C1429 1533 1427 1531 1426 1531

C1424 1531 1417 1524 1415 1520

C1414 1518 1411 1515 1409 1513

C1407 1510 1404 1507 1403 1506

C1402 1504 1400 1499 1397 1496

C1395 1492 1393 1489 1393 1488

C1393 1488 1392 1486 1391 1485

C1389 1483 1386 1477 1384 1472

C1382 1467 1379 1460 1377 1457

C1376 1453 1374 1449 1374 1447

C1373 1445 1372 1442 1372 1440

C1371 1437 1370 1434 1369 1432

C1368 1427 1365 1402 1366 1397

C1368 1375 1368 1370 1369 1365

C1370 1357 1375 1342 1376 1340

C1377 1340 1378 1337 1379 1334

C1381 1327 1387 1314 1389 1312

C1390 1311 1392 1309 1393 1307

C1393 1305 1396 1302 1398 1299

C1400 1297 1402 1295 1402 1294

C1402 1293 1429 1265 1431 1265

C1431 1265 1433 1264 1434 1263

C1435 1261 1437 1260 1438 1260

C1438 1260 1440 1259 1442 1258

C1443 1256 1446 1255 1448 1254

C1450 1253 1452 1252 1454 1250

C1457 1248 1465 1244 1472 1242

C1474 1241 1479 1239 1482 1238

C1484 1237 1491 1235 1496 1233

C1505 1231 1507 1231 1526 1231

C1552 1231 1570 1233 1583 1239

C1586 1241 1590 1242 1593 1243

C1597 1245 1618 1255 1620 1256

C1621 1257 1624 1259 1627 1260

C1629 1262 1633 1264 1635 1266

C1636 1268 1639 1270 1641 1271

C1644 1273 1659 1288 1662 1294

C1664 1296 1666 1299 1668 1302

C1670 1304 1673 1309 1675 1312

C1678 1318 1678 1320 1678 1326

C1678 1336 1675 1341 1664 1352

C1660 1356 1656 1360 1655 1360

C1655 1360 1650 1364 1646 1368

C1641 1372 1637 1376 1637 1376

C1636 1376 1627 1384 1618 1394

C1608 1404 1599 1412 1598 1412

C1598 1412 1588 1421 1578 1431

C1567 1441 1558 1450 1557 1450

C1557 1450 1548 1458 1538 1468

C1528 1478 1519 1487 1517 1488

L1514 1489

L1513 1489

L1513 1488

L1517 1484

C1530 1470 1536 1463 1541 1460

C1544 1457 1556 1446 1569 1434

C1581 1422 1591 1412 1592 1412

C1592 1412 1600 1405 1609 1396

C1617 1387 1627 1379 1629 1377

C1631 1375 1640 1367 1648 1359

C1666 1340 1669 1336 1669 1325

C1669 1318 1668 1312 1665 1309

C1665 1308 1663 1305 1662 1303

C1659 1297 1635 1273 1629 1269

C1622 1265 1620 1263 1615 1260

C1610 1256 1597 1250 1595 1250

C1594 1250 1593 1249 1591 1249

C1590 1248 1585 1246 1581 1244

C1572 1241 1568 1240 1551 1237

C1542 1235 1514 1235 1504 1237

C1496 1238 1481 1243 1478 1245

C1476 1245 1474 1246 1472 1247

C1467 1248 1461 1252 1455 1255

C1453 1257 1451 1258 1450 1259

C1448 1259 1446 1261 1444 1262

C1442 1264 1440 1265 1440 1265

C1438 1265 1415 1286 1410 1292

C1408 1294 1405 1298 1403 1300

C1395 1310 1382 1336 1378 1350

C1377 1351 1376 1355 1375 1358

C1371 1369 1370 1385 1370 1403

C1371 1412 1371 1422 1372 1426

C1373 1429 1375 1435 1375 1438

C1378 1449 1382 1460 1388 1472

C1391 1478 1395 1484 1395 1485

C1396 1486 1398 1489 1399 1492

C1401 1494 1403 1498 1405 1501

C1407 1503 1409 1506 1411 1509

C1415 1515 1428 1528 1434 1532

C1436 1534 1439 1536 1439 1537

L1440 1538

L1442 1538

C1443 1538 1444 1539 1445 1540

C1449 1545 1474 1556 1492 1562

C1495 1562 1498 1564 1499 1564

C1501 1566 1525 1569 1540 1569

C1558 1569 1568 1568 1584 1563

C1591 1561 1605 1554 1609 1551

C1610 1550 1611 1549 1612 1549

C1614 1549 1620 1543 1622 1539

C1625 1534 1625 1525 1622 1522

C1617 1515 1607 1513 1595 1517

C1584 1520 1581 1520 1580 1521

C1580 1522 1577 1523 1574 1523

C1571 1524 1566 1525 1564 1525

C1562 1526 1552 1526 1543 1527

L1526 1527

L1526 1526

L1526 1525

L1538 1525

C1555 1525 1570 1522 1578 1518

C1589 1512 1607 1506 1614 1506

C1618 1506 1620 1507 1625 1510

C1630 1513 1632 1516 1635 1527

C1636 1533 1636 1533 1633 1540

C1630 1546 1629 1547 1624 1550

C1621 1551 1618 1553 1618 1553

C1618 1554 1597 1564 1591 1567

C1579 1571 1557 1574 1541 1574

C1534 1574 1528 1574 1528 1574

Z

M1769 1569

C1766 1567 1764 1565 1762 1561

C1758 1552 1758 1550 1755 1492

C1754 1479 1754 1462 1753 1455

C1750 1420 1750 1372 1752 1359

C1753 1346 1756 1337 1758 1332

C1760 1330 1762 1325 1763 1322

C1764 1319 1766 1315 1767 1312

C1769 1310 1772 1305 1773 1303

C1774 1301 1777 1296 1780 1293

C1786 1285 1803 1267 1805 1267

C1805 1267 1808 1265 1810 1263

C1815 1258 1826 1251 1833 1247

C1835 1246 1838 1244 1839 1244

C1841 1243 1852 1238 1852 1238

C1853 1238 1855 1237 1858 1236

C1867 1232 1893 1228 1906 1228

C1917 1229 1919 1230 1927 1237

C1932 1242 1932 1242 1932 1251

C1932 1261 1931 1263 1927 1268

C1922 1272 1913 1275 1898 1276

C1885 1276 1874 1279 1868 1282

C1867 1282 1863 1285 1858 1287

C1853 1289 1848 1292 1847 1294

C1845 1296 1843 1297 1842 1297

C1840 1297 1815 1323 1813 1328

C1812 1330 1810 1334 1808 1336

C1803 1344 1798 1361 1796 1376

C1795 1391 1795 1395 1796 1427

C1797 1432 1797 1441 1798 1447

C1798 1452 1798 1460 1798 1464

C1800 1489 1802 1530 1802 1545

C1802 1561 1802 1561 1797 1567

C1791 1572 1791 1572 1782 1572

C1774 1572 1773 1572 1769 1569

Z

M1790 1557

C1796 1551 1796 1551 1796 1519

C1795 1503 1795 1488 1795 1486

C1794 1484 1794 1475 1793 1466

C1793 1457 1793 1448 1792 1446

C1790 1413 1790 1397 1791 1384

C1792 1369 1793 1365 1797 1352

C1801 1341 1803 1335 1810 1325

C1815 1317 1834 1297 1838 1294

C1840 1294 1842 1292 1843 1291

C1845 1288 1865 1278 1873 1276

C1877 1275 1883 1273 1887 1273

C1905 1269 1911 1267 1916 1263

C1920 1259 1920 1259 1920 1251

C1920 1245 1920 1244 1918 1241

C1914 1237 1907 1235 1895 1235

C1882 1235 1873 1236 1861 1240

C1850 1244 1834 1251 1827 1256

C1825 1258 1821 1261 1820 1261

C1818 1262 1815 1265 1813 1267

C1811 1269 1808 1271 1808 1271

C1806 1271 1794 1283 1794 1284

C1794 1285 1791 1288 1788 1292

C1785 1295 1782 1299 1781 1300

C1780 1301 1778 1305 1777 1307

C1775 1309 1773 1313 1772 1314

C1771 1315 1770 1318 1769 1321

C1767 1324 1766 1327 1766 1328

C1766 1329 1765 1330 1765 1332

C1762 1335 1758 1348 1756 1360

C1755 1370 1755 1375 1755 1404

C1756 1423 1756 1445 1757 1454

C1758 1462 1758 1474 1758 1479

C1760 1499 1762 1535 1763 1540

C1764 1548 1767 1554 1771 1557

C1774 1560 1775 1560 1781 1560

C1787 1560 1788 1560 1790 1557

Z

M1253 1538

C1246 1531 1240 1525 1239 1524

C1237 1524 1234 1519 1234 1518

L1234 1517

L1235 1517

C1236 1517 1268 1548 1268 1549

L1268 1550

L1267 1550

C1266 1550 1260 1544 1253 1538

Z

M181 1544

L180 1543

L181 1543

C182 1542 201 1543 209 1543

L211 1543

L211 1544

C210 1545 181 1545 181 1544

Z

M169 1541

L169 1540

L170 1540

C171 1540 172 1541 174 1541

L176 1542

L172 1542

L169 1542

L169 1541

Z

M219 1541

L221 1540

L222 1541

L223 1542

L220 1542

L217 1542

L219 1541

Z

M166 1531

C158 1529 147 1524 144 1522

C143 1521 140 1519 138 1518

C135 1516 131 1513 129 1511

C127 1509 124 1507 124 1507

C121 1507 105 1487 99 1476

C96 1471 91 1456 90 1451

C86 1433 86 1407 90 1393

C94 1379 97 1371 103 1361

C105 1360 107 1356 109 1353

C112 1346 137 1321 143 1318

C146 1316 148 1315 150 1314

C164 1306 184 1301 203 1301

C214 1301 217 1301 231 1305

C242 1308 246 1309 248 1311

C250 1312 254 1315 257 1316

C261 1317 264 1319 266 1322

C268 1324 271 1326 272 1327

C275 1328 292 1345 293 1347

C293 1348 294 1349 295 1351

C297 1353 302 1361 305 1369

C307 1372 308 1375 309 1377

C311 1382 312 1389 313 1413

C313 1434 313 1440 312 1443

C311 1446 309 1451 308 1455

C307 1459 305 1464 303 1465

C302 1466 301 1470 300 1472

C299 1474 298 1477 297 1479

C296 1480 294 1482 293 1484

C292 1486 290 1488 290 1488

C289 1488 288 1489 287 1491

C285 1497 272 1509 261 1516

C240 1530 226 1534 194 1534

C176 1534 173 1533 166 1531

Z

M127 1522

C123 1520 116 1513 116 1511

L116 1510

L117 1510

C118 1510 120 1512 123 1514

C125 1517 129 1520 131 1521

L135 1523

L134 1524

C134 1525 132 1525 127 1522

Z

M1224 1511

C1222 1509 1220 1507 1220 1506

L1219 1504

L1220 1504

C1221 1504 1224 1506 1227 1510

L1232 1515

L1230 1515

C1229 1515 1227 1513 1224 1511

Z

M100 1495

C96 1491 94 1488 94 1487

C94 1487 92 1483 89 1478

C84 1467 80 1455 78 1445

C77 1437 77 1403 79 1401

L80 1399

L80 1415

C80 1433 81 1446 84 1456

C85 1463 96 1485 99 1489

C100 1490 101 1491 101 1492

C101 1492 102 1494 104 1496

C106 1498 107 1500 107 1501

L107 1502

L106 1502

C106 1502 103 1499 100 1495

Z

M292 1497

C292 1496 292 1495 293 1494

L294 1494

L295 1494

C295 1495 295 1495 294 1496

L294 1498

L293 1498

L292 1498

L292 1497

Z

M1446 1478

C1445 1477 1444 1476 1444 1476

C1444 1474 1437 1461 1435 1459

C1433 1456 1427 1444 1427 1440

C1426 1438 1425 1434 1424 1431

C1422 1426 1422 1422 1422 1401

C1422 1388 1422 1376 1422 1374

C1423 1372 1424 1368 1424 1366

C1426 1354 1432 1341 1437 1336

C1438 1334 1439 1332 1439 1331

L1440 1329

L1441 1329

C1442 1329 1444 1327 1445 1324

C1447 1321 1451 1317 1453 1315

C1455 1313 1459 1310 1462 1307

C1465 1305 1469 1302 1472 1301

C1474 1299 1477 1297 1478 1297

C1479 1296 1480 1295 1481 1295

C1482 1295 1483 1294 1485 1293

C1488 1290 1506 1285 1518 1283

C1531 1282 1546 1283 1561 1286

C1569 1288 1589 1297 1594 1301

C1595 1302 1597 1303 1598 1304

C1605 1307 1617 1318 1617 1321

C1617 1322 1616 1324 1614 1326

C1612 1327 1607 1332 1603 1336

C1598 1341 1594 1344 1593 1344

C1593 1344 1584 1352 1574 1362

C1565 1372 1555 1381 1554 1382

C1552 1383 1545 1389 1538 1396

C1531 1402 1523 1409 1521 1411

C1519 1413 1512 1419 1508 1424

C1503 1429 1497 1434 1496 1435

C1494 1436 1483 1446 1472 1457

C1461 1469 1451 1478 1449 1478

C1448 1479 1447 1478 1446 1478

Z

M1429 1467

C1428 1467 1428 1466 1428 1466

L1428 1465

L1429 1466

L1430 1467

L1430 1467

L1429 1468

L1429 1467

Z

M1474 1466

C1474 1465 1499 1440 1500 1440

C1501 1440 1503 1438 1518 1424

C1523 1419 1528 1414 1529 1413

C1531 1412 1538 1406 1545 1399

C1552 1392 1558 1386 1559 1386

C1560 1386 1569 1378 1579 1368

C1589 1357 1597 1349 1598 1349

C1599 1349 1602 1347 1605 1344

C1608 1340 1611 1338 1611 1338

L1612 1338

L1612 1339

C1612 1341 1584 1369 1581 1370

C1580 1371 1573 1377 1565 1385

C1557 1393 1550 1400 1549 1400

C1549 1400 1543 1405 1537 1411

C1531 1417 1524 1423 1523 1424

C1521 1425 1515 1431 1509 1436

C1504 1442 1498 1447 1497 1447

C1496 1448 1492 1452 1487 1457

C1482 1461 1477 1465 1476 1466

L1474 1467

L1474 1466

Z

M1420 1451

C1412 1434 1410 1423 1410 1398

C1410 1378 1411 1371 1416 1356

C1420 1344 1428 1327 1431 1324

C1433 1323 1434 1321 1434 1321

C1434 1319 1452 1301 1456 1299

C1457 1298 1459 1296 1460 1295

C1461 1294 1463 1293 1463 1293

C1464 1293 1465 1292 1466 1291

C1469 1289 1483 1282 1491 1279

C1505 1274 1512 1273 1534 1273

C1555 1273 1563 1274 1570 1278

C1571 1278 1573 1279 1573 1279

C1575 1279 1597 1290 1598 1291

C1598 1291 1601 1293 1603 1295

C1608 1297 1610 1299 1610 1300

L1610 1301

L1609 1301

C1607 1301 1600 1298 1598 1296

C1593 1291 1561 1278 1551 1277

C1537 1275 1510 1276 1502 1279

C1500 1280 1494 1282 1489 1284

C1483 1286 1476 1290 1472 1292

C1468 1295 1465 1297 1465 1297

C1464 1297 1461 1300 1457 1303

C1454 1306 1450 1309 1450 1309

C1448 1309 1441 1316 1441 1318

C1441 1318 1440 1320 1439 1321

C1432 1328 1426 1339 1421 1354

C1415 1370 1414 1376 1414 1402

C1414 1421 1414 1425 1416 1430

C1417 1433 1418 1436 1418 1437

C1418 1438 1420 1443 1423 1449

C1425 1455 1427 1460 1427 1461

L1427 1462

L1426 1462

C1426 1462 1423 1457 1420 1451

Z

M317 1450

L317 1448

L318 1448

L319 1448

L319 1450

L319 1451

L318 1451

L317 1451

L317 1450

Z

M319 1441

L319 1439

L320 1440

C321 1440 321 1441 321 1442

L321 1444

L320 1444

L319 1444

L319 1441

Z

M321 1414

L322 1397

L323 1397

L324 1398

L324 1415

L324 1432

L322 1432

L321 1432

L321 1414

Z

M320 1393

C319 1393 319 1391 319 1388

L319 1384

L320 1384

L321 1384

L321 1389

L321 1394

L321 1394

C320 1394 320 1394 320 1393

Z

M81 1387

C81 1385 82 1383 83 1382

C83 1381 84 1380 84 1379

C84 1377 95 1355 98 1352

C99 1350 100 1348 100 1348

C100 1346 104 1341 115 1329

C121 1323 127 1318 128 1318

L129 1318

L129 1319

C129 1320 125 1324 120 1329

C115 1333 110 1339 108 1341

C107 1344 105 1346 104 1347

C101 1350 98 1356 97 1359

C96 1361 94 1364 93 1366

C88 1375 86 1380 85 1384

C85 1388 83 1390 81 1390

L80 1390

L81 1387

Z

M1206 1387

L1205 1386

L1209 1382

C1211 1380 1214 1377 1215 1375

C1216 1373 1222 1367 1228 1361

C1234 1354 1240 1348 1242 1346

C1243 1344 1249 1338 1254 1332

C1260 1326 1265 1321 1265 1320

C1265 1320 1269 1315 1274 1310

C1279 1305 1283 1301 1283 1300

C1283 1299 1286 1296 1289 1292

C1297 1284 1300 1280 1304 1273

C1307 1267 1308 1257 1306 1253

C1303 1248 1289 1245 1281 1249

C1277 1250 1266 1261 1236 1291

C1224 1303 1214 1313 1213 1313

L1212 1313

L1212 1312

C1212 1312 1221 1303 1231 1292

C1242 1281 1251 1272 1252 1270

C1255 1266 1280 1241 1282 1239

C1284 1239 1288 1238 1293 1238

C1303 1238 1308 1240 1313 1246

C1316 1250 1316 1251 1316 1259

C1316 1268 1316 1269 1313 1272

C1312 1274 1310 1276 1310 1278

C1309 1279 1304 1285 1297 1291

C1291 1297 1285 1304 1283 1306

C1282 1309 1274 1317 1265 1325

C1257 1334 1250 1341 1250 1341

C1250 1342 1245 1347 1239 1354

C1234 1360 1228 1366 1226 1369

C1222 1373 1208 1388 1207 1388

C1206 1388 1206 1388 1206 1387

Z

M316 1377

C315 1375 315 1372 314 1372

L314 1370

L315 1370

L317 1370

L317 1372

C318 1372 318 1375 318 1377

L318 1381

L317 1381

L316 1381

L316 1377

Z

M310 1362

L310 1361

L311 1362

L311 1363

L311 1364

L310 1364

L310 1362

Z

M303 1352

C303 1351 303 1350 303 1349

L304 1349

L306 1350

C306 1352 307 1353 307 1353

L307 1354

L306 1354

L304 1354

L303 1352

Z

M299 1345

C298 1344 298 1342 298 1342

L299 1341

L300 1342

C301 1343 302 1345 302 1346

L302 1347

L301 1347

C301 1347 300 1346 299 1345

Z

M273 1318

C272 1317 271 1316 271 1316

L271 1315

L272 1315

C272 1315 274 1316 276 1317

L279 1320

L276 1320

C275 1320 274 1319 273 1318

Z

M133 1314

C133 1313 138 1309 141 1309

L143 1308

L143 1309

C143 1311 137 1315 134 1315

L133 1315

L133 1314

Z

M254 1306

L252 1304

L252 1304

L253 1303

L257 1305

C260 1306 262 1307 262 1308

L262 1308

L259 1308

C258 1308 255 1307 254 1306

Z

M147 1305

C147 1304 149 1303 150 1303

L152 1303

L152 1304

L152 1305

L150 1305

C150 1306 148 1306 148 1306

L147 1306

L147 1305

Z

M157 1300

C157 1299 160 1297 162 1297

L164 1297

L164 1298

L164 1300

L162 1300

C162 1301 160 1301 159 1301

L157 1301

L157 1300

Z

M170 1296

L170 1295

L175 1294

C178 1293 183 1293 186 1292

L192 1292

L192 1293

L192 1294

L189 1295

C188 1295 185 1296 183 1296

C181 1297 177 1297 175 1297

L170 1297

L170 1296

Z

M202 1292

C202 1291 203 1291 203 1291

L204 1291

L204 1292

L204 1293

L202 1293

L201 1293

L202 1292

Z

M211 1292

L212 1292

L213 1292

L213 1293

L211 1293

L210 1293

L211 1292

Z

M739 1048

C739 1047 728 1046 715 1045

C702 1044 689 1042 687 1042

C684 1041 678 1040 675 1039

C661 1037 643 1034 641 1033

C638 1032 636 1031 624 1029

C619 1028 614 1026 612 1026

C610 1025 606 1024 604 1023

C594 1020 583 1017 582 1016

C580 1015 576 1013 572 1012

C563 1009 556 1006 545 1001

C541 999 538 998 537 998

C536 998 509 984 507 983

C506 982 503 980 499 978

C495 976 491 974 489 973

C487 971 480 967 473 962

C454 949 449 945 448 944

C448 943 446 942 444 941

C442 940 438 937 436 934

C433 931 430 929 429 929

C428 929 385 887 382 882

C380 879 377 876 375 873

C363 859 358 852 358 850

L358 849

L359 849

C359 849 361 850 362 852

C363 853 366 857 368 859

C371 862 373 865 373 865

C373 866 375 869 378 872

C384 879 390 883 398 886

C402 887 404 889 422 905

C426 909 430 912 431 912

C431 912 434 914 437 917

C446 925 452 931 456 932

C457 933 460 935 461 936

C462 938 464 939 464 939

C465 939 466 940 468 941

C470 942 472 944 474 946

C478 948 478 948 486 954

C489 956 493 958 495 959

C497 960 501 962 504 964

C507 966 510 968 510 968

C511 968 512 969 513 970

C515 971 541 985 543 985

C544 985 548 987 552 989

C556 990 559 992 560 992

C560 992 564 994 568 995

C574 999 584 1002 609 1009

C640 1019 658 1022 701 1029

C707 1029 715 1031 719 1031

C722 1032 725 1032 726 1032

C726 1031 733 1032 741 1033

C749 1033 768 1034 792 1034

L830 1034

L832 1038

L833 1041

L835 1041

C836 1041 838 1042 841 1043

C844 1045 846 1045 866 1045

C877 1045 887 1045 888 1045

L889 1045

L881 1046

C872 1047 740 1048 739 1048

Z

M896 1043

L896 1042

L906 1042

L916 1042

L916 1043

L916 1044

L906 1044

L896 1044

L896 1043

Z

M922 1041

L922 1040

L927 1040

L932 1040

L932 1041

C931 1042 929 1042 926 1042

L922 1042

L922 1041

Z

M942 1039

L942 1039

L943 1038

C943 1037 955 1037 955 1038

L956 1039

L949 1039

C946 1039 943 1039 942 1039

Z

M962 1036

C962 1035 963 1035 965 1035

C966 1035 967 1035 968 1036

L968 1037

L965 1037

L961 1037

L962 1036

Z

M976 1034

L976 1033

L980 1033

L984 1033

L984 1034

C983 1034 981 1034 980 1034

L976 1035

L976 1034

Z

M990 1031

L990 1030

L994 1030

L998 1030

L998 1031

L998 1032

L994 1032

L990 1032

L990 1031

Z

M1004 1029

L1004 1028

L1007 1028

C1008 1029 1009 1029 1010 1029

L1010 1030

L1007 1030

L1004 1030

L1004 1029

Z

M752 1027

C750 1027 742 1026 735 1025

C721 1024 707 1022 698 1021

C694 1020 687 1019 682 1019

C662 1015 649 1013 638 1010

C633 1009 629 1008 628 1008

C627 1008 621 1006 614 1004

C607 1002 601 1000 600 1000

C599 1000 595 999 592 997

C589 995 585 994 583 993

C581 993 577 991 574 990

C571 989 566 986 563 986

C560 985 554 982 550 980

C545 978 540 976 539 976

C538 975 535 974 534 973

C532 972 529 971 527 970

C525 969 523 968 523 967

C521 966 512 960 503 955

C499 954 493 950 491 948

C489 947 485 944 483 943

C481 943 480 942 480 941

C480 941 479 940 477 939

C474 937 467 932 454 922

C451 920 445 915 442 912

C439 910 435 906 432 905

C430 903 427 901 426 900

C426 898 423 896 421 895

C419 894 414 889 410 886

C406 882 402 878 402 877

C401 877 400 875 400 873

L400 871

L404 871

C424 874 443 874 476 873

C494 872 513 872 518 872

C528 872 578 868 593 865

C614 862 626 860 632 858

C637 857 642 856 643 856

C646 856 661 851 663 850

C663 849 666 849 668 849

C672 850 672 850 679 865

C683 873 687 881 689 882

C690 884 691 886 691 886

C691 887 692 889 694 891

C695 894 698 898 699 900

C700 902 703 906 704 908

C706 909 707 911 707 911

C707 912 711 918 722 929

C726 934 732 940 734 943

C736 947 742 952 746 955

C749 957 755 963 758 966

C762 969 765 972 765 972

C766 972 768 974 770 975

C772 977 775 979 777 980

C778 981 781 983 782 984

C783 986 785 987 785 987

C786 987 789 989 792 992

C795 994 798 996 799 996

C799 996 800 997 802 998

C803 999 808 1001 812 1003

C816 1006 819 1008 820 1008

C820 1008 823 1010 826 1011

C829 1013 832 1015 833 1015

C836 1017 845 1021 847 1021

C847 1021 848 1022 849 1023

L851 1025

L850 1025

C845 1027 757 1028 752 1027

Z

M1029 1024

C1030 1023 1031 1023 1032 1023

L1033 1023

L1033 1024

L1033 1025

L1030 1025

L1028 1025

L1029 1024

Z

M1053 1019

L1053 1018

L1054 1018

L1055 1018

L1055 1019

L1055 1020

L1054 1020

L1053 1020

L1053 1019

Z

M1075 1013

C1076 1012 1077 1012 1079 1012

L1081 1012

L1081 1012

C1081 1013 1079 1013 1078 1013

L1075 1014

L1075 1013

Z

M1095 1007

L1096 1007

L1097 1007

L1097 1008

L1095 1008

L1094 1008

L1095 1007

Z

M1111 1003

L1112 1003

L1113 1003

L1113 1004

L1111 1004

L1110 1004

L1111 1003

Z

M1120 1000

L1120 999

L1121 1000

C1122 1000 1122 1000 1122 1001

L1122 1001

L1120 1001

L1119 1001

L1120 1000

Z

M1187 975

C1189 975 1190 974 1191 974

L1193 974

L1193 975

L1193 976

L1191 976

C1191 977 1189 977 1188 977

L1186 977

L1187 975

Z

M1202 970

L1202 969

L1205 968

L1208 967

L1209 967

L1209 968

L1208 969

C1208 969 1206 970 1205 970

L1202 971

L1202 970

Z

M767 962

L768 962

L769 962

L769 963

L767 963

L766 963

L767 962

Z

M1227 958

C1227 957 1268 937 1270 937

L1271 937

L1271 938

C1271 939 1253 949 1251 949

C1251 949 1246 951 1241 954

C1235 957 1230 959 1229 959

L1227 959

L1227 958

Z

M741 941

C736 936 733 932 733 931

L733 930

L734 930

C734 930 752 947 753 948

L753 949

L751 949

C749 949 746 946 741 941

Z

M1284 929

L1284 928

L1287 926

C1289 926 1291 925 1291 925

L1292 925

L1292 926

C1292 928 1288 930 1285 930

L1284 930

L1284 929

Z

M722 919

L721 917

L721 916

L722 916

L724 917

C724 919 725 920 725 921

L725 922

L724 922

C723 922 722 921 722 919

Z

M1300 920

L1301 919

L1302 919

L1303 919

L1303 920

L1303 921

L1301 921

L1300 921

L1300 920

Z

M1314 912

C1314 911 1314 911 1315 911

L1315 911

L1315 912

L1315 913

L1314 913

L1313 913

L1314 912

Z

M713 909

C713 908 712 907 712 906

L712 904

L714 906

C715 907 716 909 716 909

L716 910

L715 910

C715 910 714 909 713 909

Z

M1319 908

L1319 907

L1321 907

C1322 906 1322 906 1323 906

L1323 907

L1323 908

C1322 909 1321 909 1320 909

L1319 909

L1319 908

Z

M1327 903

C1327 902 1328 902 1329 902

L1330 902

L1330 903

C1329 904 1328 904 1327 904

L1326 904

L1327 903

Z

M1341 894

C1342 893 1343 892 1343 892

L1344 892

L1344 894

L1344 895

L1342 895

L1340 895

L1341 894

Z

M703 893

C702 893 702 892 702 892

L702 891

L703 892

L704 893

L704 893

L703 894

L703 893

Z

M1348 889

C1348 888 1349 888 1350 888

L1351 888

L1351 889

L1351 890

L1349 890

L1347 890

L1348 889

Z

M1355 884

C1355 883 1358 881 1359 881

L1360 881

L1360 882

L1360 884

L1358 884

C1358 885 1356 885 1356 885

L1355 885

L1355 884

Z

M695 880

L695 879

L696 880

C697 880 697 881 697 881

L697 882

L696 882

L695 882

L695 880

Z

M1365 877

C1365 876 1366 875 1367 875

L1369 874

L1370 874

L1370 875

L1369 876

C1368 877 1367 878 1366 878

L1365 878

L1365 877

Z

M1374 870

C1374 869 1375 868 1376 868

L1378 867

L1379 867

L1379 868

L1378 869

C1377 870 1376 871 1375 871

L1374 871

L1374 870

Z

M688 869

L688 868

L689 869

C690 869 690 869 690 870

L690 870

L689 870

L688 870

L688 869

Z

M436 867

L436 866

L447 866

L458 866

L458 867

L458 868

L447 868

L436 868

L436 867

Z

M463 867

L463 866

L464 866

L465 866

L465 867

C464 868 464 868 463 868

L463 868

L463 867

Z

M485 865

L485 864

L486 864

C487 863 497 863 510 863

L532 864

L532 865

L532 866

L509 866

C495 866 486 866 485 865

Z

M1383 863

C1383 863 1385 861 1387 859

C1389 857 1395 853 1399 849

C1403 846 1406 843 1406 843

L1407 843

L1407 844

C1407 847 1387 864 1385 864

L1383 864

L1383 863

Z

M539 862

C539 861 543 861 548 861

L557 861

L557 862

L557 863

L547 863

L538 863

L539 862

Z

M564 860

L564 859

L572 859

L580 859

L580 860

C579 861 576 861 571 861

L564 861

L564 860

Z

M586 858

L585 858

L586 857

C586 856 593 856 593 857

L594 858

L591 858

C589 858 587 858 586 858

Z

M600 856

C600 855 603 855 606 855

L611 854

L611 855

L611 856

L605 856

L600 856

L600 856

Z

M627 851

C627 850 627 850 628 849

L629 849

L630 850

L631 851

L629 851

L627 852

L627 851

Z

M639 848

L639 847

L641 847

C642 846 643 846 644 847

L646 847

L646 848

L646 849

L643 849

L639 849

L639 848

Z

M350 841

C349 839 346 835 345 833

C343 830 341 827 340 825

C339 822 337 820 336 819

C335 817 333 814 332 812

C331 810 330 806 329 805

C327 802 314 775 314 774

C314 774 312 770 311 767

C307 760 299 736 294 716

C292 711 290 703 289 698

C289 692 287 686 287 685

C286 680 281 650 280 640

C280 636 280 616 280 597

C280 563 280 557 284 528

L285 523

L289 522

C291 522 315 522 342 522

L390 522

L390 524

L390 525

L382 525

C362 525 337 526 321 527

C306 528 303 528 298 531

C292 534 288 540 287 547

C286 549 286 553 285 555

C284 561 284 635 285 646

C288 673 291 687 297 712

C300 727 303 738 305 742

C306 743 307 747 308 751

C312 762 314 766 316 770

C317 772 318 775 318 775

C318 777 334 810 336 812

C337 813 339 816 341 820

C343 823 345 827 345 828

C347 830 356 844 356 845

L356 846

L355 846

C354 846 352 844 350 841

Z

M1411 840

C1411 839 1430 820 1432 820

C1432 820 1440 812 1449 804

L1465 788

L1466 789

L1467 790

L1451 806

C1443 815 1435 822 1434 822

C1434 822 1429 826 1423 832

C1418 837 1413 841 1412 841

L1411 841

L1411 840

Z

M739 820

C739 819 736 818 734 818

C726 815 720 810 714 800

C710 794 710 794 710 782

C710 764 710 764 719 754

C726 747 728 746 734 744

C740 742 743 742 752 742

C761 743 763 743 767 745

C770 747 773 748 773 748

C774 748 779 753 779 754

C779 755 780 757 782 759

C785 764 785 764 785 779

C785 795 785 795 781 801

C779 805 777 808 777 808

C776 809 767 815 760 818

C755 820 752 821 747 821

C743 821 740 821 739 820

Z

M759 805

C764 803 769 799 773 791

C776 786 776 785 776 779

L776 773

L774 772

C773 772 771 773 769 773

C765 775 758 775 756 774

C756 773 754 771 754 768

C752 764 752 764 753 761

C756 755 755 753 747 753

C742 753 740 753 736 756

C724 761 721 766 721 780

C720 791 720 791 727 798

C735 806 735 806 745 806

C751 806 757 805 759 805

Z

M1469 783

C1469 782 1472 778 1476 775

C1480 771 1483 767 1483 766

C1483 766 1486 763 1489 759

C1492 756 1495 753 1495 752

C1495 752 1496 750 1498 748

C1502 744 1509 735 1512 730

C1513 728 1515 726 1516 725

C1517 725 1518 723 1518 722

C1518 722 1519 719 1521 717

C1525 713 1525 713 1532 703

C1543 686 1545 683 1549 677

C1550 675 1553 670 1556 666

C1559 661 1562 655 1564 652

C1566 649 1567 646 1568 646

C1568 645 1571 641 1573 637

C1576 631 1587 607 1593 597

C1599 584 1604 574 1608 566

C1609 561 1611 557 1611 556

C1611 556 1613 551 1616 545

C1622 532 1623 529 1624 529

L1625 529

L1624 531

C1623 536 1621 542 1620 543

C1620 544 1619 545 1619 546

C1619 548 1618 551 1616 555

C1614 558 1612 562 1612 564

C1611 566 1608 573 1604 580

C1601 587 1598 594 1598 595

C1597 596 1595 602 1592 607

C1589 613 1587 617 1587 618

C1587 618 1586 619 1585 620

C1584 622 1580 629 1576 638

C1571 646 1567 653 1567 654

C1566 655 1564 659 1561 662

C1557 671 1557 671 1549 681

C1546 686 1543 691 1543 691

C1543 692 1541 694 1540 696

C1539 698 1538 700 1537 701

C1536 702 1535 704 1534 706

C1532 708 1531 710 1530 711

C1529 712 1528 713 1528 714

C1528 714 1526 717 1524 719

C1522 722 1519 726 1518 728

C1517 730 1514 734 1511 736

C1509 739 1507 741 1507 742

C1507 743 1505 745 1503 747

C1502 749 1499 752 1498 754

C1496 756 1493 759 1491 762

C1489 764 1486 767 1486 768

C1484 771 1471 784 1470 784

L1469 784

L1469 783

Z

M472 524

L472 523

L482 523

L491 523

L491 524

L491 525

L482 525

L472 525

L472 524

Z

M537 522

L537 521

L543 521

C547 521 553 521 558 521

L566 520

L566 521

L565 523

L551 523

L537 523

L537 522

Z

M642 522

L642 521

L643 520

C643 519 646 519 649 519

L654 520

L654 521

L654 523

L648 523

C645 523 643 523 642 522

Z

M811 520

L798 520

L799 519

C799 518 843 518 844 519

L844 520

L837 520

C833 520 828 520 826 520

C825 520 818 520 811 520

Z

M968 517

L967 516

L978 516

L989 516

L989 517

L989 518

L979 518

C973 518 968 518 968 517

Z

M447 516

C446 516 446 485 447 447

C447 409 447 377 447 377

L447 376

L463 375

C472 375 502 375 529 374

C556 374 581 374 584 374

L589 374

L589 444

L589 514

L561 514

C546 514 522 514 509 515

C496 515 479 516 472 516

C464 516 456 516 453 517

C450 517 447 517 447 516

Z

M1030 515

C1028 513 1031 512 1045 512

L1060 513

L1060 514

L1060 516

L1045 516

C1036 516 1030 516 1030 515

Z

M611 513

C610 512 610 509 611 506

C611 502 611 471 611 437

L612 374

L647 373

C666 373 688 373 696 373

C704 372 720 372 731 371

L752 371

L752 385

C752 393 752 404 753 410

C753 416 753 439 753 462

C754 487 754 505 755 505

C757 507 756 510 754 511

C752 513 740 513 681 514

C630 514 611 514 611 513

Z

M1155 513

L1146 513

L1146 512

L1147 511

L1181 510

C1203 510 1216 510 1216 511

L1217 512

L1217 513

C1216 513 1168 514 1155 513

Z

M596 511

C595 510 595 503 595 460

C596 394 596 377 595 375

C594 375 594 373 594 372

L595 371

L599 371

L603 372

L604 436

C604 486 604 502 603 506

L601 512

L599 512

C598 512 597 512 596 511

Z

M778 504

C778 477 777 430 776 426

C775 424 775 410 775 397

L776 372

L800 371

C822 371 862 370 883 369

C899 369 915 369 916 369

C916 370 917 401 917 439

C917 494 917 508 916 509

C915 509 897 510 866 510

C839 511 808 511 797 511

L778 512

L778 504

Z

M941 509

C940 509 940 480 940 446

C939 411 939 383 938 382

C937 382 937 379 938 375

L939 369

L954 368

C990 368 1050 367 1063 366

C1074 366 1077 366 1078 367

C1078 368 1079 373 1079 379

C1079 384 1079 407 1080 430

C1080 462 1081 471 1082 473

C1083 475 1083 478 1082 491

C1082 499 1082 507 1081 507

C1081 509 1072 509 1070 508

C1068 507 1062 507 1048 507

C1024 507 957 509 948 510

C944 510 941 510 941 509

Z

M760 508

C759 506 760 480 761 417

C761 382 761 377 760 373

C759 371 758 369 758 368

L758 367

L762 367

C764 367 767 367 767 366

L769 366

L769 361

C769 357 767 354 764 354

C760 354 756 359 756 363

L756 366

L712 366

C688 366 659 366 648 366

C637 366 623 366 617 366

L607 366

L607 362

C608 358 608 358 611 359

C612 359 633 359 659 359

C683 358 714 358 727 358

C743 357 751 357 753 356

C758 354 760 348 760 341

C759 337 759 319 759 300

C758 248 757 213 756 211

C756 210 754 208 752 207

C748 206 745 206 695 206

C666 207 639 208 634 208

C629 208 623 208 619 208

C612 208 612 208 607 212

C602 216 602 216 603 267

C604 331 604 347 603 348

L602 348

L600 347

C600 346 597 345 595 345

L591 345

L590 271

L590 197

L591 197

C592 197 599 197 608 196

C622 195 639 195 706 194

C717 193 750 193 779 193

C807 192 831 192 833 192

C834 191 851 191 871 191

L907 191

L909 195

L910 198

L908 200

C906 202 903 202 895 202

C888 202 882 202 880 202

C877 202 866 202 854 203

C842 204 820 204 804 204

C779 204 775 204 772 206

C766 209 766 208 766 254

C768 337 768 347 770 351

C773 357 774 357 814 357

C917 355 912 355 916 353

C922 350 922 350 922 308

C922 287 921 269 921 268

C921 267 920 266 921 265

C922 263 921 236 919 217

C918 204 918 204 924 204

C927 204 928 204 929 201

C930 199 931 197 931 196

L931 193

L932 193

C932 193 933 194 934 194

C934 195 958 195 990 193

C993 193 1013 193 1035 193

C1076 192 1078 192 1080 187

C1081 184 1081 109 1080 73

C1079 48 1078 46 1073 43

C1069 41 1068 41 1019 43

C996 44 968 44 958 44

C936 44 931 45 928 49

C926 52 926 53 926 70

C926 80 926 103 927 122

C928 140 928 162 928 170

L928 186

L926 187

L924 187

L924 186

L924 184

L920 183

C918 182 917 182 915 183

L914 185

L914 183

C916 178 917 169 915 166

C914 163 914 153 914 128

C913 108 913 85 912 77

C912 54 912 36 912 36

C912 35 921 35 932 35

C942 34 953 34 956 33

C958 33 974 33 991 32

C1008 32 1037 32 1057 31

C1076 31 1092 31 1092 31

C1093 31 1093 44 1095 100

C1095 104 1095 122 1095 140

C1096 193 1097 213 1098 215

C1099 216 1099 336 1098 337

C1098 338 1095 338 1092 338

L1087 338

L1087 337

C1086 335 1085 295 1084 247

C1084 225 1083 207 1083 206

C1083 204 1080 203 1078 201

C1074 199 1077 199 995 201

C979 201 959 201 950 201

C937 201 935 202 933 203

C928 208 928 209 928 238

C929 253 929 283 930 305

C930 326 931 345 931 347

C932 348 933 351 935 352

C938 355 938 355 956 354

C966 354 981 354 990 354

C999 353 1021 353 1041 352

C1060 352 1077 352 1079 351

L1082 351

L1083 355

C1085 362 1088 364 1091 363

C1093 363 1095 362 1096 362

L1097 361

L1097 362

C1097 362 1097 363 1096 363

C1095 364 1094 380 1095 385

C1095 388 1096 414 1097 445

L1097 500

L1093 500

L1089 500

L1089 499

C1089 498 1089 497 1089 497

C1089 496 1089 482 1088 465

C1088 448 1087 418 1086 400

C1086 363 1086 363 1079 360

C1075 359 1059 359 1010 361

C1002 361 983 361 967 361

C938 362 936 362 933 366

C930 369 929 379 931 384

C932 387 933 397 932 445

C932 477 932 504 932 505

L932 507

L928 507

L925 507

L924 490

C924 481 924 465 925 455

C925 444 925 431 925 425

C924 419 924 403 924 389

L923 364

L927 364

L931 364

L931 359

C931 354 930 352 927 352

C924 352 921 357 921 360

L921 363

L918 363

C917 363 893 363 865 363

C837 364 807 364 797 364

C783 364 778 364 775 366

C768 368 768 370 768 398

C768 411 769 422 769 423

C770 424 770 452 770 491

L770 509

L765 509

L760 509

L760 508

Z

M1297 508

L1297 507

L1319 507

C1331 507 1346 507 1351 507

L1360 507

L1360 508

L1360 509

L1329 509

C1312 509 1298 508 1297 508

Z

M431 506

L426 505

L426 466

C426 445 427 418 427 406

C428 393 428 378 428 370

L428 357

L451 357

C533 354 578 354 580 356

C581 356 582 359 583 360

L584 364

L582 365

C582 366 575 366 568 367

C560 367 544 367 531 368

C518 368 494 368 479 368

C447 369 447 369 443 374

C442 376 442 379 441 388

C441 414 440 459 439 467

C439 471 439 482 439 491

L438 507

L437 508

C437 508 434 507 431 506

Z

M1105 507

C1104 507 1104 495 1104 482

C1104 469 1104 453 1104 447

C1103 440 1103 419 1102 401

L1102 367

L1104 367

C1105 366 1116 366 1128 366

C1139 365 1161 365 1176 364

C1191 363 1211 363 1221 363

C1230 362 1239 362 1240 361

C1245 361 1246 362 1245 371

C1245 375 1245 402 1246 431

C1247 473 1248 484 1249 486

C1250 488 1250 491 1250 495

C1248 504 1251 504 1212 504

C1193 504 1171 504 1163 505

C1140 505 1110 507 1107 508

L1105 508

L1105 507

Z

M1664 507

L1661 506

L1663 506

C1664 505 1673 504 1683 504

C1692 503 1704 501 1709 500

C1718 499 1735 495 1738 493

C1739 493 1742 492 1744 492

C1751 490 1784 476 1788 472

C1789 471 1794 468 1798 466

C1803 463 1808 459 1811 456

C1813 454 1816 452 1816 452

C1818 452 1831 439 1831 438

C1831 437 1833 434 1835 432

C1838 430 1840 426 1841 425

C1842 423 1844 420 1846 417

C1848 414 1851 408 1853 404

C1856 398 1857 395 1857 390

C1857 387 1857 383 1856 382

C1855 380 1851 376 1842 371

C1838 368 1814 359 1808 358

C1805 358 1801 357 1798 356

C1777 350 1744 348 1716 351

C1709 352 1702 352 1698 352

L1692 352

L1693 351

C1694 351 1698 349 1702 349

C1709 347 1716 347 1744 347

C1778 347 1795 348 1803 351

C1805 352 1811 354 1818 356

C1824 357 1832 360 1835 362

C1839 363 1843 365 1843 365

C1844 365 1850 368 1857 371

C1870 378 1870 378 1870 382

C1871 384 1870 387 1868 392

C1864 399 1861 405 1859 407

C1858 408 1856 412 1854 416

C1850 424 1847 428 1842 434

C1840 436 1838 439 1838 439

C1838 441 1821 457 1818 459

C1816 460 1814 461 1814 462

C1814 463 1807 467 1802 470

C1801 471 1799 472 1799 472

C1796 475 1768 489 1760 491

C1757 492 1753 494 1751 495

C1730 502 1679 509 1664 507

Z

M1381 505

C1381 504 1383 504 1386 504

C1388 504 1390 504 1391 505

L1391 506

L1386 506

L1380 506

L1381 505

Z

M1399 503

L1398 502

L1402 502

L1407 502

L1407 503

L1407 504

L1403 504

C1401 504 1399 504 1399 503

Z

M1416 500

C1417 500 1419 500 1420 500

L1422 501

L1418 501

L1415 501

L1416 500

Z

M1427 498

L1427 497

L1430 497

L1433 497

L1433 498

L1433 499

L1430 499

L1427 499

L1427 498

Z

M1439 496

L1438 495

L1440 495

L1442 495

L1442 496

L1442 497

L1441 497

C1440 497 1439 497 1439 496

Z

M1256 490

C1255 488 1254 474 1253 438

C1253 408 1250 362 1250 360

C1248 356 1246 356 1174 357

L1105 357

L1105 352

C1105 350 1105 347 1105 346

L1105 345

L1116 345

C1122 345 1147 345 1171 344

C1215 343 1263 342 1264 343

C1264 343 1264 353 1265 364

C1265 375 1265 389 1265 396

C1266 415 1266 436 1266 437

L1265 437

L1266 439

C1266 440 1267 452 1268 467

L1268 493

L1263 493

L1257 493

L1256 490

Z

M1455 491

L1455 490

L1456 490

C1457 490 1458 490 1459 491

L1459 492

L1457 492

L1455 492

L1455 491

Z

M1518 422

L1518 421

L1519 422

L1519 423

L1519 424

L1518 424

L1518 422

Z

M1514 418

C1514 417 1512 412 1509 407

C1507 401 1505 396 1505 396

C1505 395 1504 392 1502 389

C1501 386 1500 382 1499 380

C1499 377 1497 373 1497 370

C1493 358 1492 340 1492 311

C1492 278 1493 272 1502 241

C1505 231 1512 216 1517 211

C1518 209 1519 207 1519 207

C1519 206 1520 204 1522 203

C1523 202 1525 199 1526 198

C1528 194 1535 186 1537 186

C1538 186 1540 187 1542 189

C1543 191 1545 192 1545 192

C1546 192 1548 194 1550 196

C1552 197 1554 199 1555 199

C1555 199 1558 201 1561 204

C1564 207 1567 209 1567 209

C1568 209 1571 211 1573 214

C1575 216 1579 219 1580 220

C1585 223 1602 240 1604 243

C1605 245 1607 248 1610 251

C1616 257 1623 267 1623 268

C1623 268 1624 269 1625 270

C1626 272 1632 280 1635 286

C1637 288 1639 292 1641 296

C1643 299 1645 303 1645 304

C1646 308 1649 316 1653 324

C1654 326 1655 330 1655 333

L1656 337

L1655 337

L1654 338

L1653 335

C1653 333 1652 330 1651 328

C1650 327 1648 323 1648 321

C1642 306 1636 293 1633 289

C1632 288 1630 285 1629 282

C1627 280 1625 277 1625 276

C1624 275 1621 272 1619 269

C1617 266 1613 261 1610 258

C1607 255 1605 252 1605 251

C1605 250 1580 225 1579 225

C1578 225 1575 223 1573 220

C1571 218 1567 215 1565 214

C1563 212 1561 210 1560 209

C1556 205 1547 202 1539 202

C1532 202 1532 202 1527 207

C1524 209 1520 213 1519 215

C1518 217 1517 220 1515 221

C1514 223 1512 227 1511 230

C1510 233 1508 237 1508 239

C1507 240 1506 243 1505 245

C1505 246 1504 249 1503 252

C1502 254 1500 260 1499 266

C1493 301 1493 335 1499 363

C1500 367 1501 372 1501 373

C1501 376 1512 406 1514 412

C1515 413 1516 416 1516 417

L1516 419

L1515 419

L1514 419

L1514 418

Z

M611 283

L611 214

L640 214

C656 214 670 214 672 214

C677 213 726 212 739 212

L750 212

L750 226

C750 233 750 253 750 270

C752 329 752 349 751 349

C751 350 736 350 719 350

C702 351 670 351 649 352

L611 352

L611 283

Z

M776 348

C775 346 774 277 774 232

L774 212

L793 211

C804 211 822 211 833 211

C845 210 868 210 884 209

L914 209

L914 237

C914 303 914 346 913 347

C913 347 908 348 859 348

C839 349 812 349 799 349

L776 350

L776 348

Z

M939 346

C937 345 937 344 938 342

C938 340 938 323 937 303

C937 283 936 254 936 238

L935 209

L966 208

C983 208 999 208 1003 208

C1006 208 1023 207 1041 207

C1059 206 1075 206 1075 207

C1076 208 1077 226 1077 278

C1078 298 1078 320 1079 327

C1079 335 1079 342 1079 343

L1078 345

L1058 345

C1034 345 957 347 947 348

C942 348 940 348 939 346

Z

M936 187

C935 186 935 172 935 156

C934 139 934 109 933 89

L933 52

L934 52

C935 51 958 51 986 51

C1013 50 1044 50 1054 50

L1072 50

L1072 59

C1072 67 1072 81 1075 152

C1076 175 1076 182 1075 183

C1074 185 1070 185 1053 185

C1041 185 1027 185 1021 185

C1014 186 999 186 987 186

C975 187 958 187 950 188

L936 188

L936 187

Z

M558 1540

L554 1540

L554 1538

L554 1537

L559 1537

C562 1538 569 1538 574 1539

C579 1539 583 1540 584 1540

L584 1541

L573 1541

C567 1541 561 1540 558 1540

Z

M587 1540

L586 1540

L587 1539

C587 1538 591 1538 595 1538

L602 1538

L601 1539

C600 1540 588 1541 587 1540

Z

M547 1536

C539 1535 522 1529 521 1527

L520 1526

L520 1525

C521 1525 534 1529 536 1530

C536 1530 540 1532 545 1533

L553 1536

L553 1537

L553 1537

L552 1537

C551 1537 549 1537 547 1536

Z

M561 1530

C548 1529 528 1520 518 1513

C515 1511 512 1509 510 1508

C505 1504 491 1490 486 1484

C484 1480 481 1475 479 1472

C478 1469 476 1465 475 1464

C473 1462 471 1458 471 1455

C470 1451 468 1446 467 1443

C465 1433 465 1400 467 1391

C471 1373 476 1362 480 1357

C481 1356 483 1354 484 1352

C485 1349 487 1346 488 1345

C490 1343 491 1341 492 1340

C493 1337 509 1321 513 1318

C515 1317 517 1316 517 1315

C517 1314 524 1311 525 1311

C526 1311 527 1310 528 1309

C528 1308 534 1306 540 1304

C551 1300 551 1300 575 1299

C595 1299 601 1299 607 1300

C617 1303 645 1317 649 1322

C650 1323 653 1325 655 1327

C661 1331 670 1340 672 1344

C674 1346 676 1350 678 1353

C680 1356 683 1362 685 1367

C686 1371 688 1375 688 1377

C693 1388 694 1409 692 1428

C691 1434 690 1441 689 1445

C688 1449 686 1454 686 1457

C685 1460 683 1463 682 1464

C681 1465 680 1467 680 1468

C674 1481 654 1505 641 1513

C633 1519 621 1525 619 1525

C618 1525 615 1526 612 1527

C610 1528 605 1529 603 1530

C601 1530 596 1530 593 1531

C584 1532 572 1532 561 1530

Z

M639 1523

C639 1522 640 1522 641 1522

L642 1522

L642 1523

L642 1524

L640 1524

L638 1524

L639 1523

Z

M511 1521

C509 1520 507 1518 505 1516

C504 1515 502 1514 502 1514

C499 1514 480 1492 475 1484

C467 1472 461 1460 458 1449

C456 1440 456 1438 456 1415

C456 1391 456 1391 460 1378

C465 1365 472 1349 477 1343

C479 1342 480 1339 480 1339

L480 1337

L481 1337

C482 1336 484 1334 486 1332

C489 1326 495 1320 497 1320

L498 1320

L498 1321

C498 1322 496 1325 494 1327

C491 1329 489 1332 489 1333

C489 1333 488 1334 487 1335

C486 1335 484 1338 483 1340

C482 1342 481 1344 480 1345

C477 1347 467 1366 465 1374

C463 1380 460 1389 459 1395

C458 1397 458 1407 458 1417

C458 1433 458 1437 460 1442

C461 1445 462 1450 463 1453

C465 1460 469 1470 473 1475

C475 1478 476 1480 476 1481

C476 1484 499 1510 502 1510

C503 1510 505 1512 509 1515

C512 1518 515 1520 516 1520

L517 1520

L517 1521

C516 1523 514 1523 511 1521

Z

M646 1519

C646 1519 646 1518 647 1518

L648 1517

L648 1518

L648 1520

L647 1520

L646 1520

L646 1519

Z

M656 1510

C656 1509 662 1503 668 1498

L671 1496

L671 1497

C671 1500 660 1511 658 1511

L656 1511

L656 1510

Z

M675 1491

C675 1490 675 1489 676 1489

L677 1488

L677 1489

C677 1490 677 1491 676 1492

L675 1492

L675 1491

Z

M680 1484

L679 1483

L680 1482

L681 1482

L682 1482

L682 1483

L681 1484

L680 1485

L680 1484

Z

M684 1476

C684 1476 684 1475 685 1475

L686 1474

L686 1475

L686 1477

L685 1477

L684 1477

L684 1476

Z

M688 1468

C688 1466 692 1458 693 1458

L694 1458

L694 1460

C694 1461 690 1469 689 1469

L688 1470

L688 1468

Z

M696 1449

C696 1447 697 1445 697 1445

L698 1444

L698 1446

C698 1447 698 1450 697 1451

L697 1453

L696 1453

L695 1453

L696 1449

Z

M699 1436

C698 1435 698 1433 699 1431

C701 1425 701 1408 699 1395

C697 1377 688 1354 680 1343

C678 1341 677 1339 677 1338

L677 1337

L678 1337

C678 1337 680 1339 682 1341

C686 1344 694 1360 694 1363

C694 1364 694 1365 695 1365

C695 1366 697 1371 699 1376

C702 1384 703 1403 703 1417

C702 1424 702 1432 701 1434

L701 1437

L700 1437

C699 1437 699 1437 699 1436

Z

M669 1330

C667 1327 663 1324 661 1322

C659 1321 655 1318 652 1316

C648 1313 645 1311 644 1310

C643 1310 641 1309 640 1308

C631 1302 615 1295 607 1293

C595 1291 560 1291 550 1294

C546 1294 542 1295 540 1296

L536 1296

L536 1295

C537 1295 540 1293 544 1292

C566 1286 585 1285 611 1291

C618 1293 644 1305 651 1311

C655 1313 658 1316 659 1317

C663 1319 675 1331 675 1333

L676 1335

L675 1335

C674 1335 672 1333 669 1330

Z

M506 1313

C507 1312 508 1311 509 1311

L510 1311

L509 1313

C508 1313 507 1314 506 1314

L505 1314

L506 1313

Z

M514 1307

L514 1306

L516 1306

L517 1306

L517 1307

C516 1308 515 1308 515 1308

L514 1308

L514 1307

Z

M526 1300

L526 1299

L528 1299

L531 1299

L529 1300

C528 1301 527 1301 527 1301

L526 1301

L526 1300

Z

M764 790

C763 790 763 789 763 788

C763 787 762 785 761 784

L760 782

L760 781

C761 781 762 781 764 782

L768 782

L768 783

C768 783 767 785 766 787

L765 791

L765 791

C764 791 764 791 764 790

Z

M739 765

L738 765

L738 764

L738 762

L741 762

C744 761 745 762 745 764

L745 766

L743 766

C742 766 740 766 739 765

Z

"/>

</svg>

