<?xml version="1.0" standalone="no"?>

<!DOCTYPE svg PUBLIC "-//W3C//DTD SVG 20010904//EN"

 "http://www.w3.org/TR/2001/REC-SVG-20010904/DTD/svg10.dtd">

<svg version="1.0" xmlns="http://www.w3.org/2000/svg"

 width="1564.000000pt" height="1517.000000pt" viewBox="0 0 1564.000000 1517.000000"

 preserveAspectRatio="xMidYMid meet">

<path fill="#393b41" stroke="none" d="
M490 1490

C481 1490 474 1489 473 1488

C472 1488 469 1487 467 1487

C464 1486 457 1484 451 1481

C442 1476 439 1474 426 1462

C418 1455 410 1447 409 1445

C407 1442 404 1439 403 1437

C401 1435 399 1433 399 1432

C399 1432 396 1428 392 1424

C386 1417 382 1412 372 1398

C370 1395 366 1391 364 1389

C363 1387 361 1385 361 1384

C361 1384 359 1381 356 1378

C353 1376 350 1372 349 1371

C347 1366 344 1363 338 1356

C335 1352 332 1349 332 1348

C332 1348 330 1345 327 1342

C324 1340 321 1336 320 1335

C319 1331 315 1327 308 1318

C291 1299 285 1291 285 1290

C285 1289 282 1286 279 1282

C275 1278 271 1273 270 1271

C268 1269 265 1265 263 1262

C261 1260 258 1256 257 1254

C255 1252 253 1249 251 1248

C249 1246 248 1244 248 1244

C248 1243 245 1240 242 1235

C238 1231 234 1226 232 1223

C230 1221 226 1216 224 1213

C214 1201 212 1199 212 1198

C212 1197 208 1193 203 1187

C198 1182 194 1177 194 1176

C194 1176 192 1173 189 1170

C186 1167 183 1163 182 1161

C181 1160 178 1156 175 1152

C172 1149 168 1144 166 1142

C164 1139 160 1134 157 1131

C154 1127 151 1123 150 1121

C146 1115 138 1105 133 1099

C129 1095 126 1092 126 1091

C125 1090 121 1084 112 1073

C108 1069 104 1063 103 1061

C101 1059 97 1054 95 1052

C92 1049 90 1046 90 1046

C90 1045 85 1039 76 1028

C73 1026 70 1021 68 1019

C67 1017 60 1008 53 1000

C36 979 30 968 24 950

C21 943 21 943 22 915

C22 884 22 880 25 872

C26 869 27 864 27 862

C27 859 29 855 30 853

C31 851 32 847 33 844

C33 841 34 837 35 836

C36 834 36 832 36 830

C36 828 36 827 37 827

C38 826 38 825 38 823

C38 821 38 819 39 818

C40 816 48 787 49 779

C50 777 51 774 51 773

C52 772 53 768 53 765

C54 761 55 757 55 756

C56 754 57 749 58 746

C59 742 60 738 61 737

C61 735 62 731 63 727

C64 722 65 718 66 716

C66 715 67 713 67 711

C67 710 68 705 69 702

C70 698 72 693 73 690

C77 671 79 663 81 657

C82 654 83 650 84 647

C85 643 86 639 87 637

C87 634 88 630 89 626

C89 623 91 619 91 618

C92 616 93 613 93 610

C94 607 95 603 96 602

C96 600 98 594 99 589

C103 569 104 566 105 563

C107 560 111 546 113 535

C113 531 115 527 115 525

C116 524 117 522 117 521

C117 520 118 515 119 512

C121 505 121 502 126 485

C126 482 128 475 130 470

C131 464 133 458 133 456

C135 446 140 428 141 427

C141 426 142 423 143 420

C144 416 145 410 146 407

C147 403 148 398 148 396

C149 394 149 391 150 390

C150 389 151 385 152 382

C153 378 154 373 155 371

C156 368 157 364 157 362

C158 359 159 356 160 355

C160 353 161 351 161 349

C161 346 163 338 165 334

C165 333 166 330 166 329

C166 328 167 325 168 321

C169 318 170 313 171 311

C172 309 174 304 176 301

C178 298 180 295 180 294

C180 294 181 292 183 291

C184 289 185 287 185 287

C185 285 213 258 216 257

C217 256 220 254 222 253

C224 251 227 250 227 250

C228 250 229 249 231 249

C232 248 234 247 237 246

C239 245 241 244 242 244

C243 243 245 242 248 242

C250 241 252 240 253 240

C254 239 258 237 261 235

C265 234 268 232 269 232

C269 231 271 231 272 231

C274 231 276 230 277 229

C278 228 280 227 282 227

C283 226 290 223 296 220

C302 217 309 214 311 213

C314 213 316 211 317 211

C318 210 321 209 323 208

C325 207 329 206 331 205

C334 204 338 202 340 202

C342 201 345 199 346 199

C347 198 349 197 351 196

C354 195 357 194 360 192

C362 191 368 188 373 187

C378 185 382 183 383 182

C384 182 385 181 385 181

C386 181 389 180 392 178

C396 176 400 175 403 174

C405 173 408 172 410 171

C411 170 414 169 416 169

C417 168 419 167 420 166

C421 166 422 165 423 165

C423 165 426 164 428 163

C430 162 433 161 434 160

C440 158 445 156 447 155

C448 154 451 153 453 153

C454 152 456 151 457 150

C458 150 459 149 459 149

C460 149 462 148 464 147

C467 146 469 145 470 145

C470 145 474 144 477 142

C483 139 487 137 497 133

C500 132 504 130 507 129

C509 128 512 127 514 126

C516 126 519 125 521 123

C522 122 524 121 525 121

C526 121 527 120 528 120

C529 119 530 118 531 118

C532 118 534 117 535 116

C537 115 538 114 539 114

C540 114 541 114 542 113

C542 113 544 112 546 111

C549 110 553 108 557 106

C560 105 564 103 566 103

C567 103 568 103 568 102

C569 102 572 100 575 100

C578 99 581 97 582 97

C584 95 594 90 596 90

C596 90 600 89 603 87

C614 82 629 75 632 75

C633 75 634 74 635 74

C636 73 637 72 638 72

C639 72 641 71 643 70

C645 68 648 67 651 66

C653 65 656 64 659 63

C661 61 665 60 667 59

C669 58 674 56 676 55

C678 54 682 52 685 51

C687 50 690 49 691 49

C692 48 695 46 699 45

C702 44 708 41 713 39

C717 37 724 34 728 32

C731 31 736 29 738 28

C742 25 754 21 761 20

C769 19 822 19 825 20

C826 20 829 21 831 22

C833 23 836 24 837 24

C838 25 839 26 840 26

C843 26 859 34 863 37

C864 38 866 39 867 39

C869 39 889 49 897 54

C899 56 902 57 903 57

C904 57 907 58 909 59

C911 60 915 62 917 63

C919 64 922 65 923 66

C924 67 929 69 934 71

C939 74 945 77 946 77

C947 78 950 80 952 80

C954 81 956 82 957 83

C957 84 958 84 959 84

C960 84 962 85 963 86

C963 87 965 88 965 88

C966 88 976 92 980 94

C982 96 983 96 994 101

C998 103 1002 105 1002 105

C1003 105 1005 106 1006 107

C1008 109 1012 111 1015 112

C1020 114 1023 116 1027 118

C1028 118 1036 123 1045 127

C1054 131 1064 136 1066 137

C1068 139 1074 141 1078 143

C1087 148 1115 162 1117 163

C1118 164 1121 165 1123 166

C1126 167 1128 169 1129 170

C1130 170 1131 171 1133 171

C1134 171 1135 171 1135 172

C1136 172 1138 174 1142 175

C1145 177 1148 179 1149 179

C1152 181 1158 184 1164 186

C1167 188 1173 191 1178 194

C1183 196 1187 198 1189 198

C1190 198 1192 199 1195 201

C1197 203 1199 204 1199 204

C1199 204 1203 206 1206 207

C1209 209 1214 212 1216 212

C1219 213 1223 215 1226 217

C1229 219 1234 222 1237 223

C1241 225 1245 227 1248 228

C1250 230 1254 232 1258 233

C1261 234 1266 237 1269 239

C1272 241 1275 242 1277 243

C1281 243 1292 249 1296 252

C1298 254 1301 255 1302 255

C1303 255 1319 262 1329 268

C1332 270 1340 273 1341 273

C1341 273 1344 276 1348 279

C1352 282 1355 285 1356 285

C1356 285 1360 288 1364 292

C1372 299 1382 312 1386 318

C1391 329 1394 336 1395 340

C1395 342 1397 346 1397 350

C1400 360 1403 370 1404 376

C1405 378 1406 383 1406 385

C1408 391 1410 396 1412 409

C1414 415 1416 422 1417 425

C1417 427 1418 432 1419 434

C1420 437 1420 440 1421 441

C1422 443 1425 456 1428 469

C1429 474 1430 478 1430 479

C1431 480 1432 483 1433 487

C1433 491 1435 496 1435 499

C1436 501 1437 505 1438 508

C1438 510 1439 513 1439 515

C1440 516 1441 520 1442 524

C1443 529 1444 533 1444 535

C1445 536 1447 540 1447 544

C1448 547 1450 554 1451 559

C1452 564 1453 569 1454 570

C1454 571 1455 575 1456 579

C1457 583 1458 588 1459 590

C1459 592 1460 596 1461 600

C1462 604 1463 607 1463 608

C1464 609 1465 613 1466 616

C1468 626 1472 642 1473 646

C1473 647 1475 652 1476 657

C1476 661 1478 665 1478 666

C1478 666 1479 670 1480 674

C1481 681 1482 684 1485 693

C1486 697 1488 703 1489 707

C1489 712 1491 717 1492 718

C1492 720 1493 722 1493 724

C1493 726 1493 728 1494 729

C1495 730 1497 739 1503 767

C1504 772 1506 777 1506 778

C1506 778 1507 780 1507 783

C1509 792 1514 811 1518 826

C1520 831 1522 838 1522 843

C1523 847 1525 853 1525 857

C1531 878 1533 895 1533 913

C1532 931 1531 941 1528 949

C1525 956 1518 971 1516 972

C1516 973 1515 974 1515 974

C1515 975 1513 977 1511 980

C1504 990 1497 998 1496 1001

C1495 1003 1492 1007 1490 1010

C1487 1013 1485 1016 1485 1017

C1484 1018 1482 1020 1481 1022

C1480 1023 1477 1027 1475 1030

C1473 1033 1469 1038 1467 1041

C1464 1043 1462 1046 1462 1047

C1462 1047 1461 1049 1460 1050

C1459 1050 1458 1052 1458 1052

C1458 1053 1456 1055 1455 1057

C1453 1059 1451 1062 1451 1062

C1451 1063 1450 1065 1449 1066

C1448 1067 1446 1068 1446 1070

C1444 1074 1436 1085 1430 1091

C1427 1094 1425 1097 1425 1097

C1425 1098 1423 1101 1420 1104

C1417 1107 1415 1111 1414 1113

C1413 1114 1411 1117 1410 1119

C1404 1125 1399 1133 1399 1134

C1399 1134 1397 1136 1395 1139

C1389 1146 1386 1150 1381 1157

C1379 1161 1374 1167 1370 1171

C1367 1176 1364 1179 1364 1180

C1364 1180 1363 1182 1362 1183

C1361 1183 1360 1185 1360 1185

C1360 1187 1352 1197 1350 1200

C1348 1201 1347 1203 1347 1203

C1347 1204 1346 1206 1344 1208

C1342 1209 1341 1211 1341 1212

C1341 1213 1339 1215 1336 1218

C1333 1221 1330 1226 1329 1229

C1327 1231 1324 1236 1322 1238

C1319 1240 1317 1243 1317 1243

C1317 1244 1311 1253 1306 1259

C1304 1261 1302 1265 1301 1266

C1300 1267 1298 1270 1297 1272

C1295 1273 1293 1276 1293 1277

C1292 1278 1289 1282 1286 1286

C1283 1290 1280 1295 1279 1296

C1278 1297 1275 1301 1274 1303

C1268 1310 1263 1318 1263 1319

C1263 1319 1261 1322 1258 1325

C1255 1327 1253 1330 1253 1330

C1253 1331 1251 1335 1248 1339

C1244 1343 1242 1346 1242 1347

C1242 1347 1239 1351 1233 1358

C1231 1361 1228 1364 1227 1367

C1222 1374 1219 1377 1215 1382

C1211 1385 1209 1388 1206 1394

C1205 1396 1203 1398 1202 1400

C1201 1401 1199 1404 1197 1406

C1196 1408 1193 1412 1191 1415

C1189 1417 1187 1420 1187 1420

C1187 1421 1186 1423 1184 1425

C1180 1430 1159 1453 1158 1453

C1157 1453 1155 1454 1153 1456

C1152 1457 1149 1458 1149 1458

C1148 1458 1147 1459 1146 1460

C1145 1461 1131 1468 1129 1468

C1128 1468 1127 1469 1126 1469

C1125 1470 1122 1471 1119 1472

C1117 1472 1113 1473 1111 1473

C1110 1474 1092 1474 1072 1475

C1005 1477 977 1478 938 1479

C866 1481 828 1482 799 1483

C767 1484 721 1485 651 1487

C626 1488 593 1488 576 1489

C530 1490 507 1491 490 1490

Z

"/>

<path fill="#eeeee9" stroke="none" d="
M493 1484

C484 1483 467 1480 465 1478

C464 1478 461 1476 457 1475

C454 1474 449 1472 448 1470

C446 1469 443 1467 441 1466

C433 1461 417 1446 412 1439

C411 1437 409 1434 407 1432

C405 1430 403 1427 403 1426

C402 1425 399 1422 397 1420

C395 1419 392 1415 392 1413

C391 1411 388 1409 387 1407

C385 1406 383 1403 382 1402

C381 1400 379 1397 376 1395

C374 1392 371 1389 370 1387

C369 1385 367 1383 367 1382

C366 1382 364 1380 363 1379

C362 1377 359 1373 357 1370

C354 1367 350 1362 349 1360

C347 1358 343 1353 340 1350

C337 1346 335 1343 335 1343

C335 1342 333 1340 330 1336

C327 1333 325 1330 325 1330

C325 1330 323 1327 321 1325

C315 1319 308 1309 307 1307

C307 1306 305 1305 304 1304

C303 1302 301 1300 300 1299

C299 1297 297 1295 296 1293

C294 1292 292 1289 291 1287

C290 1285 288 1282 286 1281

C284 1279 281 1276 280 1274

C278 1271 275 1267 273 1265

C272 1263 268 1258 266 1255

C263 1252 260 1248 258 1246

C256 1243 253 1240 252 1239

C251 1237 249 1234 248 1233

C246 1231 244 1228 243 1227

C242 1225 240 1222 238 1220

C236 1218 234 1216 234 1216

C234 1215 230 1210 221 1200

C218 1196 215 1193 215 1192

C215 1191 213 1189 211 1186

C208 1184 206 1181 206 1181

C206 1180 204 1177 201 1175

C198 1172 196 1169 196 1168

C196 1168 194 1166 192 1164

C190 1162 188 1159 187 1158

C186 1156 184 1152 182 1150

C179 1147 175 1143 173 1139

C168 1134 162 1126 156 1119

C154 1116 151 1113 150 1111

C148 1108 146 1105 145 1104

C144 1103 143 1101 143 1101

C143 1100 141 1098 139 1096

C137 1094 134 1091 133 1090

C132 1088 130 1084 127 1082

C125 1079 121 1074 119 1072

C117 1069 115 1067 115 1066

C115 1066 114 1065 113 1063

C112 1062 110 1060 109 1058

C107 1055 103 1051 101 1048

C89 1035 87 1032 86 1029

C85 1028 83 1026 82 1025

C81 1024 79 1022 77 1020

C76 1017 73 1014 72 1013

C70 1011 66 1006 63 1001

C59 996 55 991 54 990

C46 982 36 962 31 947

C28 938 28 936 27 918

C27 906 27 896 28 891

C29 884 38 845 41 834

C42 832 43 827 44 824

C45 820 46 817 46 817

C47 816 47 814 47 813

C47 812 48 806 50 802

C51 797 53 789 54 785

C59 765 61 756 64 746

C66 740 68 732 69 728

C70 723 72 716 73 713

C75 706 76 700 79 686

C80 683 81 679 82 677

C83 674 84 670 85 667

C86 663 87 658 88 656

C88 654 90 648 91 643

C92 638 94 631 95 626

C97 621 100 608 103 597

C106 585 109 573 110 570

C111 566 113 561 113 557

C114 553 116 549 116 547

C117 545 118 540 119 537

C119 533 121 529 121 527

C122 524 136 473 137 466

C138 463 139 457 141 453

C142 448 144 442 144 440

C146 433 148 422 150 417

C153 405 155 399 157 389

C159 382 161 374 162 370

C164 365 166 358 167 354

C174 330 181 310 184 305

C186 302 188 298 188 297

L189 295

L190 295

L191 295

L193 292

C195 287 211 271 220 265

C230 258 251 247 264 242

C270 240 275 238 276 237

C276 236 280 235 283 234

C287 232 291 230 292 230

C294 229 296 228 297 227

C298 227 304 225 309 222

C317 219 320 217 335 211

C338 210 343 207 347 206

C350 204 353 203 354 203

C354 203 360 200 367 197

C382 190 385 189 390 187

C392 186 396 184 399 183

C402 181 406 180 408 179

C410 178 416 176 420 174

C424 172 429 170 430 170

C431 169 436 167 440 165

C444 163 448 161 449 161

C450 161 453 159 457 158

C461 156 465 154 466 154

C467 154 468 153 470 153

C471 151 484 146 497 141

C499 140 506 137 511 134

C516 132 520 130 521 130

C521 130 524 129 528 127

C531 125 534 124 535 124

C535 124 540 122 545 120

C550 117 555 115 556 115

C559 114 571 108 585 102

C590 100 596 97 599 96

C602 95 606 93 607 92

C609 91 611 90 612 90

C613 90 616 89 620 87

C623 85 626 84 626 84

C627 84 632 82 637 79

C643 76 649 74 651 73

C652 73 654 72 655 72

C656 71 671 65 687 58

C690 56 697 53 700 51

C704 50 708 48 708 48

C709 48 711 47 713 46

C743 32 771 23 790 23

C797 22 816 24 822 26

C824 27 826 27 826 27

C829 28 835 30 838 32

C839 32 841 33 842 33

C843 33 879 51 886 54

C887 55 896 59 906 64

C915 69 924 73 925 74

C926 74 939 81 955 89

C971 97 986 105 989 107

C994 110 1202 214 1204 214

C1205 214 1226 224 1232 227

C1233 228 1241 232 1250 236

C1258 241 1266 245 1268 245

C1274 249 1278 251 1282 252

C1284 253 1287 254 1287 254

C1288 255 1301 262 1315 269

C1331 277 1343 283 1344 285

C1346 287 1347 288 1348 288

C1350 288 1366 305 1373 313

C1380 321 1385 331 1389 343

C1393 355 1394 359 1395 362

C1396 363 1397 369 1399 377

C1401 384 1403 393 1404 397

C1409 415 1448 568 1452 586

C1452 588 1453 591 1454 594

C1454 596 1455 598 1456 600

C1456 601 1458 606 1459 611

C1460 616 1462 622 1462 624

C1463 625 1468 646 1473 669

C1482 706 1485 717 1490 737

C1490 739 1492 744 1492 748

C1493 751 1496 761 1498 770

C1502 783 1503 789 1507 808

C1508 811 1510 816 1510 818

C1511 820 1512 827 1513 834

C1515 840 1517 848 1517 851

C1518 853 1520 862 1522 870

C1525 884 1525 887 1525 903

C1525 930 1523 938 1512 961

C1508 969 1504 976 1504 976

C1503 977 1497 986 1497 987

C1497 987 1496 989 1494 991

C1492 992 1490 995 1489 997

C1489 998 1487 1001 1485 1001

C1484 1002 1483 1004 1483 1004

C1483 1005 1482 1007 1481 1008

C1479 1010 1478 1012 1478 1012

C1478 1013 1476 1015 1475 1017

C1473 1019 1471 1021 1471 1021

C1471 1022 1470 1024 1468 1025

C1466 1028 1459 1037 1459 1039

C1459 1039 1458 1041 1456 1042

C1455 1043 1451 1048 1448 1053

C1440 1065 1440 1065 1437 1069

C1436 1070 1433 1073 1432 1075

C1431 1077 1429 1079 1429 1080

C1427 1082 1421 1090 1417 1095

C1415 1099 1412 1102 1411 1104

C1410 1105 1409 1107 1408 1109

C1407 1110 1405 1113 1403 1114

C1401 1116 1400 1118 1400 1118

C1400 1119 1395 1126 1391 1131

C1388 1134 1385 1138 1384 1140

C1383 1142 1380 1146 1378 1149

C1370 1158 1369 1160 1368 1162

C1367 1163 1365 1166 1364 1167

C1362 1169 1361 1170 1361 1171

C1361 1172 1360 1174 1358 1175

C1357 1176 1355 1179 1354 1181

C1351 1186 1347 1191 1344 1194

C1342 1196 1341 1198 1341 1198

C1341 1199 1339 1201 1338 1203

C1336 1206 1334 1208 1334 1209

C1334 1209 1333 1211 1332 1212

C1331 1212 1330 1214 1330 1214

C1330 1215 1328 1218 1320 1227

C1318 1230 1316 1232 1316 1233

C1316 1233 1315 1235 1314 1236

C1313 1236 1312 1238 1312 1239

C1312 1239 1310 1242 1308 1244

C1306 1247 1304 1249 1304 1250

C1304 1250 1302 1252 1300 1254

C1299 1256 1297 1259 1297 1259

C1297 1260 1296 1261 1295 1262

C1293 1263 1291 1267 1289 1269

C1287 1272 1284 1276 1283 1278

C1279 1282 1273 1292 1271 1294

C1271 1295 1269 1297 1268 1299

C1266 1300 1265 1302 1265 1303

C1265 1303 1260 1310 1256 1315

C1255 1316 1253 1319 1253 1320

C1252 1322 1251 1324 1249 1325

C1247 1326 1246 1328 1246 1328

C1246 1329 1244 1332 1242 1335

C1239 1337 1236 1342 1234 1345

C1232 1347 1229 1351 1228 1353

C1226 1355 1223 1359 1221 1362

C1219 1365 1217 1369 1215 1369

C1214 1370 1213 1372 1213 1373

C1213 1373 1212 1375 1211 1377

C1203 1388 1201 1390 1201 1391

C1201 1391 1200 1393 1198 1394

C1197 1395 1195 1398 1194 1399

C1193 1401 1191 1403 1190 1405

C1188 1406 1187 1408 1187 1408

C1187 1412 1156 1445 1150 1448

C1149 1448 1147 1450 1147 1450

L1147 1451

L1145 1452

C1144 1452 1139 1455 1133 1457

C1119 1464 1109 1467 1092 1469

C1080 1470 1072 1470 1038 1471

C1031 1472 1021 1472 1015 1472

C1009 1473 991 1473 975 1474

C959 1474 941 1474 936 1475

C930 1475 914 1475 900 1475

C871 1476 800 1478 781 1479

C774 1479 757 1479 744 1479

C730 1480 713 1480 707 1481

C691 1481 673 1482 644 1482

C632 1483 612 1483 600 1484

C569 1484 504 1485 493 1484

Z

M561 1476

C589 1475 619 1475 626 1474

C671 1473 709 1472 722 1472

C730 1472 738 1472 738 1472

C739 1471 771 1470 811 1469

C825 1469 840 1469 845 1468

C852 1468 898 1467 943 1465

C955 1465 971 1465 978 1464

C1003 1464 1055 1462 1077 1461

C1097 1461 1102 1460 1115 1457

C1120 1456 1142 1445 1149 1441

C1153 1437 1165 1426 1167 1422

C1167 1420 1168 1419 1169 1419

C1169 1419 1171 1417 1172 1415

C1173 1413 1175 1410 1177 1409

C1179 1407 1180 1405 1180 1405

C1180 1404 1182 1401 1185 1398

C1187 1394 1190 1390 1191 1388

C1193 1386 1195 1384 1196 1383

C1197 1382 1198 1380 1198 1380

C1198 1379 1200 1377 1202 1374

C1204 1372 1206 1370 1206 1369

C1206 1368 1210 1363 1215 1356

C1217 1354 1221 1349 1222 1347

C1223 1345 1226 1341 1228 1339

C1230 1336 1234 1331 1236 1328

C1238 1324 1241 1321 1241 1321

C1242 1321 1243 1319 1245 1316

C1246 1314 1248 1312 1248 1311

C1249 1311 1252 1307 1255 1302

C1263 1291 1265 1288 1270 1282

C1272 1280 1274 1277 1274 1277

L1274 1275

L1275 1275

C1276 1274 1277 1273 1278 1272

C1282 1265 1284 1262 1288 1258

C1292 1253 1297 1246 1297 1244

C1297 1244 1298 1242 1299 1241

C1301 1241 1302 1239 1302 1238

C1303 1236 1304 1234 1306 1232

C1308 1230 1311 1226 1313 1223

C1315 1220 1319 1215 1321 1213

C1324 1210 1326 1208 1326 1207

C1326 1206 1327 1204 1329 1202

C1334 1196 1337 1192 1337 1191

C1337 1190 1338 1188 1340 1186

C1342 1184 1346 1179 1348 1175

C1351 1171 1353 1168 1354 1168

L1355 1168

L1356 1166

C1356 1164 1358 1162 1360 1160

C1361 1158 1363 1156 1363 1155

C1363 1154 1364 1153 1373 1143

C1375 1140 1377 1138 1377 1137

C1377 1136 1384 1126 1387 1123

C1389 1122 1391 1119 1392 1118

C1393 1116 1394 1114 1395 1113

C1395 1112 1396 1111 1396 1111

C1396 1110 1398 1108 1400 1106

C1402 1104 1406 1099 1409 1094

C1416 1083 1418 1081 1424 1074

C1427 1070 1430 1065 1432 1062

C1434 1059 1437 1055 1439 1052

C1441 1050 1443 1048 1443 1047

C1443 1046 1448 1039 1451 1036

C1453 1034 1454 1032 1455 1031

C1455 1030 1457 1027 1458 1025

C1462 1021 1467 1015 1472 1008

C1477 1000 1478 998 1487 987

C1491 983 1494 978 1495 977

C1496 975 1497 973 1499 972

C1501 969 1514 944 1516 937

C1518 932 1518 928 1518 909

C1518 887 1518 887 1509 852

C1504 832 1499 812 1497 807

C1496 802 1495 796 1495 794

C1494 790 1489 769 1483 749

C1482 744 1480 735 1478 729

C1477 722 1475 717 1475 716

C1475 715 1473 711 1473 706

C1472 702 1470 698 1470 697

C1470 695 1468 691 1468 687

C1463 668 1463 666 1459 653

C1457 646 1456 639 1455 637

C1454 635 1453 629 1452 626

C1449 616 1441 583 1439 573

C1437 563 1434 551 1433 549

C1432 549 1431 544 1430 538

C1428 527 1425 518 1422 506

C1421 502 1419 496 1419 493

C1417 486 1412 467 1409 457

C1409 454 1407 448 1406 445

C1406 441 1405 437 1404 437

C1404 436 1403 431 1401 426

C1398 410 1396 402 1395 399

C1393 395 1392 392 1388 373

C1384 353 1382 347 1379 340

C1377 337 1375 332 1374 330

C1373 327 1371 324 1370 322

C1368 321 1367 319 1367 318

C1367 318 1366 316 1365 315

C1363 314 1361 311 1359 308

C1357 304 1347 296 1339 292

C1337 291 1334 289 1333 288

C1331 286 1307 274 1252 247

C1245 244 1237 240 1233 238

C1229 237 1226 235 1225 234

C1222 232 1212 227 1208 226

C1206 225 1086 165 1065 154

C1062 153 1033 138 1000 122

C966 105 938 91 937 90

C931 87 892 68 891 68

C890 68 887 66 884 64

C880 62 877 60 876 60

C876 60 865 55 853 49

C832 38 823 35 812 32

C810 32 800 32 790 32

C772 32 772 32 760 36

C754 38 746 42 742 43

C738 45 734 47 731 48

C729 49 727 50 726 51

C724 51 723 52 722 52

C721 52 719 53 716 54

C714 55 710 57 708 58

C705 59 703 60 702 60

C702 60 701 61 700 61

C700 62 697 63 695 64

C692 65 690 66 689 66

C687 67 685 68 683 69

C679 70 674 72 666 77

C664 77 663 78 662 78

C662 78 658 80 654 81

C650 83 645 85 644 86

C642 86 638 88 636 89

C633 91 631 92 630 92

C629 92 625 94 620 96

C615 98 610 101 608 102

C606 102 598 106 590 109

C582 113 575 116 574 116

C573 116 566 119 546 129

C541 131 535 134 533 134

C531 135 526 138 521 140

C516 142 510 145 508 145

C501 148 488 154 482 156

C480 158 477 159 476 159

C475 159 474 160 472 160

C466 164 448 171 446 171

C445 171 444 171 443 172

C443 173 429 180 424 182

C419 183 408 188 402 191

C399 193 393 195 389 197

C386 198 381 200 380 201

C378 202 371 204 352 213

C349 214 346 215 344 216

C342 217 338 219 335 220

C331 221 328 223 327 223

C326 224 322 226 318 228

C314 229 310 231 309 231

C308 232 288 241 285 242

C283 243 279 244 276 246

C272 248 267 250 264 251

C243 260 228 267 224 270

C223 271 222 272 221 272

C220 272 199 292 199 294

C199 295 198 296 197 297

C191 304 181 328 177 346

C176 352 171 370 168 380

C168 382 166 387 165 391

C165 395 164 398 163 400

C162 401 160 408 159 417

C157 425 154 435 153 440

C151 444 149 452 148 458

C147 464 145 472 143 476

C142 480 139 493 136 504

C133 515 130 528 129 533

C127 537 126 543 125 547

C124 551 123 556 122 559

C119 569 117 576 117 577

C117 578 116 582 115 586

C114 590 112 597 111 602

C110 607 108 614 106 619

C105 624 102 635 100 644

C98 652 95 663 93 668

C92 673 90 681 88 688

C87 694 85 700 85 702

C84 704 82 710 81 716

C80 722 78 728 78 730

C77 732 75 739 73 747

C71 754 70 760 69 762

C69 763 67 772 64 783

C61 794 58 806 57 811

C56 815 54 822 53 826

C51 831 50 835 50 836

C50 837 49 841 48 845

C43 861 37 884 35 894

C35 897 34 907 34 914

C34 927 34 929 38 942

C40 949 42 957 43 959

C48 967 60 985 64 988

C66 991 69 995 72 998

C75 1001 77 1005 77 1005

C77 1006 79 1008 82 1011

C84 1013 86 1016 86 1016

C86 1017 88 1020 91 1022

C94 1025 97 1029 99 1032

C100 1034 102 1036 102 1036

C103 1036 104 1038 105 1040

C106 1042 108 1045 109 1046

C111 1046 112 1048 113 1049

C113 1050 115 1054 118 1057

C129 1069 132 1073 133 1075

C134 1077 137 1080 138 1082

C140 1083 143 1086 144 1089

C145 1091 147 1093 148 1094

C150 1095 152 1097 153 1100

C155 1102 157 1105 159 1106

C160 1107 161 1109 161 1110

C161 1110 163 1113 165 1116

C167 1118 171 1122 172 1125

C174 1127 177 1130 178 1132

C179 1134 181 1136 182 1136

C182 1137 185 1139 186 1142

C188 1145 192 1150 194 1152

C197 1154 199 1157 199 1158

C199 1158 200 1160 202 1162

C204 1163 207 1168 210 1171

C212 1175 218 1182 222 1186

C226 1191 230 1195 230 1196

C230 1196 231 1198 233 1200

C235 1201 236 1203 236 1203

C236 1205 248 1220 250 1221

C251 1222 252 1223 252 1224

C253 1226 255 1228 257 1230

C258 1232 261 1235 262 1237

C263 1239 266 1242 267 1244

C269 1245 271 1247 272 1248

C272 1249 275 1253 278 1257

C281 1260 285 1265 287 1267

C288 1269 292 1274 295 1278

C298 1281 300 1284 300 1285

C300 1285 301 1287 303 1288

C304 1289 306 1292 307 1293

C307 1295 310 1298 313 1301

C318 1305 323 1312 328 1320

C329 1321 332 1324 334 1327

C343 1337 347 1342 347 1343

C347 1344 350 1347 353 1350

C356 1354 360 1359 362 1362

C364 1364 367 1368 370 1371

C372 1374 374 1376 374 1377

C374 1377 376 1380 379 1383

C381 1385 384 1389 385 1390

C385 1391 387 1394 389 1396

C391 1398 393 1400 393 1400

C393 1401 395 1404 398 1407

C401 1410 403 1412 403 1413

C403 1414 406 1417 409 1420

C417 1429 421 1435 423 1438

C425 1442 440 1456 446 1459

C454 1465 471 1473 481 1475

C488 1477 492 1478 500 1477

C505 1477 533 1477 561 1476

Z

M483 1469

C482 1468 479 1467 476 1466

C473 1466 467 1464 460 1460

C451 1456 448 1454 439 1445

C433 1439 427 1433 427 1431

C426 1429 424 1427 423 1426

C421 1426 420 1424 419 1423

C419 1422 416 1417 412 1413

C408 1409 404 1404 403 1402

C397 1395 389 1385 386 1380

C384 1378 381 1375 379 1372

C378 1370 375 1367 374 1366

C372 1364 369 1361 368 1359

C364 1352 361 1348 357 1344

C354 1342 352 1339 352 1338

C352 1338 350 1335 347 1332

C344 1330 341 1326 340 1324

C339 1322 336 1318 334 1316

C323 1302 320 1298 317 1295

C313 1291 309 1286 303 1277

C302 1275 299 1272 298 1271

C297 1270 294 1267 292 1265

C287 1256 284 1253 281 1249

C279 1247 277 1245 277 1244

C277 1244 275 1241 272 1238

C268 1233 257 1221 252 1213

C250 1211 246 1206 244 1203

C241 1200 239 1198 239 1197

C239 1197 237 1194 236 1192

C234 1190 232 1188 232 1188

C232 1187 229 1184 225 1180

C222 1176 218 1172 218 1171

C217 1170 216 1168 215 1166

C213 1164 210 1160 208 1158

C205 1155 202 1151 201 1150

C201 1149 198 1145 195 1143

C192 1140 190 1137 190 1137

C190 1136 188 1134 186 1131

C184 1128 182 1126 182 1125

C182 1125 180 1122 177 1119

C174 1116 171 1113 170 1111

C163 1101 156 1092 152 1088

C149 1085 146 1081 144 1079

C141 1075 137 1069 130 1061

C127 1057 124 1053 122 1050

C120 1048 117 1044 114 1041

C112 1039 110 1035 109 1034

C107 1031 103 1026 94 1016

C92 1013 89 1010 88 1008

C87 1007 85 1004 84 1003

C83 1001 80 999 79 997

C78 995 76 993 75 992

C61 976 55 967 49 954

C42 938 42 937 42 914

C42 901 43 891 43 888

C46 877 47 872 49 866

C50 863 52 858 53 855

C53 851 54 848 54 847

C55 846 56 843 56 841

C58 831 59 828 63 812

C66 802 68 792 69 790

C70 787 71 784 71 783

C72 782 73 779 73 777

C73 774 74 770 76 765

C76 763 77 760 78 756

C79 752 80 748 81 747

C81 745 82 740 83 737

C84 733 85 728 85 727

C86 725 87 721 87 719

C88 717 89 711 90 707

C92 702 94 695 95 691

C96 686 98 678 100 674

C101 669 103 661 104 658

C104 654 106 649 106 648

C107 647 108 642 109 637

C109 632 111 628 111 627

C112 626 113 623 113 620

C114 616 115 613 115 611

C116 610 117 608 118 605

C118 603 119 597 121 592

C122 587 123 582 123 581

C123 580 124 577 125 575

C127 570 129 561 132 549

C132 544 134 539 135 537

C136 534 137 530 138 528

C138 525 139 522 139 521

C140 520 141 515 142 510

C144 500 146 493 150 480

C151 474 153 468 153 466

C156 454 159 440 161 438

C161 436 163 430 164 425

C165 420 167 412 168 408

C169 403 171 396 172 391

C173 387 174 381 175 379

C177 375 179 369 182 355

C184 347 186 338 188 332

C189 330 190 326 190 323

C191 319 194 314 196 311

C198 308 200 305 200 304

L201 302

L202 302

L203 302

L204 300

C205 297 224 277 226 277

C227 277 228 276 229 275

C229 274 231 273 233 272

C239 269 249 265 250 265

C250 265 251 264 252 264

C253 263 255 262 257 261

C260 261 263 260 264 259

C265 258 267 257 267 257

C268 257 271 255 275 254

C280 252 283 250 284 250

C284 250 287 249 289 248

C291 247 299 243 307 240

C314 237 323 233 326 231

C329 230 334 227 337 227

C340 226 343 224 343 224

C344 223 345 223 346 223

C347 223 354 220 362 216

C370 212 379 208 384 207

C388 205 392 203 394 202

C395 201 397 200 397 200

C398 200 400 199 403 198

C406 196 409 195 409 195

C410 195 412 194 415 193

C418 191 422 190 424 189

C426 188 431 186 434 185

C438 183 442 181 443 181

C444 180 449 178 453 177

C456 175 461 173 463 172

C466 171 478 166 487 162

C499 156 521 147 524 146

C526 146 529 144 531 143

C532 142 534 141 534 141

C535 141 539 139 544 137

C549 134 554 132 555 132

C556 131 560 129 564 127

C568 126 572 124 574 123

C580 121 591 117 592 116

C594 115 606 109 609 108

C610 108 614 107 617 105

C620 103 627 100 633 98

C639 96 647 92 651 90

C654 89 660 86 662 86

C664 85 667 84 667 83

C668 83 671 81 675 80

C678 79 683 77 686 75

C688 74 693 72 695 71

C697 70 701 69 702 68

C703 67 705 66 706 66

C707 66 713 63 725 58

C729 56 734 54 736 53

C738 52 742 50 746 49

C762 41 770 39 795 39

C810 39 813 39 819 41

C823 42 826 44 827 45

C829 45 830 46 831 46

C833 46 849 54 850 55

C851 56 853 57 856 58

C861 60 875 67 885 73

C888 75 892 77 893 77

C894 77 901 80 908 83

C915 87 923 91 927 93

C930 94 934 96 935 97

C936 98 939 99 940 99

C942 100 943 101 944 101

C945 102 947 103 948 103

C949 104 951 105 952 105

C952 106 962 110 972 116

C983 121 993 126 994 127

C995 127 999 129 1003 131

C1007 133 1011 135 1013 136

C1014 137 1021 140 1029 144

C1036 147 1049 154 1059 159

C1092 176 1151 205 1151 205

C1151 205 1156 207 1162 210

C1167 213 1174 216 1176 217

C1179 218 1181 219 1183 220

C1184 221 1188 223 1192 225

C1196 228 1200 230 1201 230

C1201 230 1204 231 1206 232

C1208 233 1213 235 1216 237

C1222 240 1244 252 1249 254

C1251 254 1256 257 1260 259

C1263 261 1267 263 1268 263

C1270 263 1282 269 1285 272

C1287 273 1289 274 1291 275

C1295 276 1305 281 1313 285

C1317 287 1322 289 1325 291

C1330 293 1333 295 1340 301

C1342 302 1345 304 1347 305

C1350 307 1358 316 1358 318

C1358 318 1359 320 1361 321

C1365 326 1374 343 1376 353

C1385 387 1386 394 1387 397

C1388 400 1392 415 1394 424

C1394 427 1396 433 1397 435

C1397 437 1399 442 1400 446

C1400 449 1402 456 1404 461

C1405 466 1407 473 1407 476

C1408 483 1410 488 1411 489

C1411 490 1412 493 1413 497

C1413 501 1414 505 1415 506

C1416 507 1417 511 1417 515

C1418 519 1419 524 1419 525

C1420 526 1421 531 1422 535

C1423 539 1424 544 1425 545

C1425 546 1426 549 1427 551

C1430 566 1432 576 1434 579

C1434 581 1436 586 1436 591

C1437 595 1438 600 1439 600

C1439 601 1440 605 1441 609

C1442 614 1444 621 1445 625

C1446 629 1448 635 1448 639

C1449 642 1451 647 1452 651

C1452 654 1454 659 1455 662

C1455 665 1457 670 1457 673

C1458 676 1460 681 1460 685

C1462 694 1471 726 1472 730

C1473 732 1478 754 1483 776

C1484 781 1485 786 1486 788

C1486 789 1488 794 1489 800

C1490 805 1493 815 1495 823

C1497 830 1499 840 1501 846

C1502 852 1504 860 1505 865

C1509 879 1510 884 1511 892

C1512 896 1512 900 1513 901

C1514 905 1511 930 1509 937

C1506 945 1498 961 1496 962

C1496 963 1495 964 1495 964

C1495 965 1494 967 1492 969

C1490 971 1488 974 1487 975

C1484 981 1480 986 1479 986

C1478 986 1477 988 1476 990

C1475 992 1472 996 1470 999

C1468 1003 1465 1006 1464 1007

C1463 1009 1462 1010 1461 1011

C1460 1012 1459 1014 1459 1014

C1459 1015 1452 1024 1448 1029

C1447 1030 1444 1033 1442 1036

C1438 1043 1437 1045 1434 1048

C1431 1052 1424 1063 1421 1067

C1420 1069 1419 1071 1418 1071

C1417 1071 1416 1072 1415 1074

C1414 1076 1412 1080 1410 1082

C1407 1085 1404 1088 1403 1090

C1402 1092 1399 1096 1397 1099

C1395 1101 1393 1104 1393 1105

C1393 1105 1392 1107 1390 1108

C1388 1110 1387 1111 1387 1112

C1387 1112 1385 1115 1383 1118

C1381 1120 1379 1123 1379 1124

C1379 1124 1378 1125 1377 1126

C1376 1127 1374 1129 1372 1132

C1371 1134 1369 1136 1369 1136

C1369 1136 1366 1140 1362 1145

C1359 1150 1356 1155 1354 1156

C1353 1157 1352 1158 1352 1159

C1352 1160 1350 1162 1349 1164

C1347 1166 1345 1168 1345 1168

C1345 1168 1344 1170 1343 1172

C1342 1173 1340 1175 1339 1177

C1339 1178 1337 1180 1336 1182

C1334 1185 1329 1191 1324 1197

C1322 1199 1321 1201 1321 1202

C1321 1203 1319 1205 1317 1207

C1315 1209 1312 1213 1310 1216

C1308 1219 1305 1224 1303 1227

C1300 1229 1297 1234 1295 1236

C1294 1238 1291 1243 1288 1247

C1285 1250 1282 1254 1281 1256

C1280 1258 1278 1261 1276 1262

C1274 1264 1273 1266 1273 1266

C1273 1267 1272 1269 1270 1270

C1269 1271 1267 1274 1266 1275

C1266 1276 1263 1281 1260 1284

C1257 1288 1254 1292 1254 1293

C1254 1293 1253 1295 1252 1296

C1250 1297 1248 1301 1246 1304

C1244 1307 1241 1311 1238 1314

C1236 1316 1233 1321 1231 1324

C1230 1326 1227 1330 1225 1332

C1224 1333 1222 1336 1222 1337

C1221 1339 1218 1343 1212 1349

C1210 1351 1208 1354 1208 1355

C1207 1356 1201 1365 1196 1370

C1193 1373 1190 1378 1188 1380

C1187 1382 1184 1386 1183 1388

C1182 1389 1179 1393 1178 1395

C1177 1397 1174 1401 1172 1404

C1170 1406 1167 1410 1166 1412

C1162 1419 1148 1433 1141 1437

C1131 1442 1121 1448 1119 1448

C1119 1448 1117 1449 1116 1449

C1111 1453 1098 1454 1064 1455

C1046 1455 1030 1455 1030 1456

C1029 1456 979 1457 938 1458

C908 1459 885 1460 873 1461

C867 1461 852 1461 839 1462

C814 1462 791 1463 770 1463

C762 1464 746 1464 733 1464

C719 1465 701 1465 693 1466

C684 1466 668 1466 657 1467

C646 1467 621 1467 601 1468

C580 1469 546 1469 525 1470

C490 1470 485 1470 483 1469

Z

M587 1276

C596 1271 600 1268 603 1261

C604 1258 606 1256 607 1255

C607 1254 608 1253 608 1253

C608 1252 609 1251 609 1250

C611 1248 612 1245 616 1234

C619 1222 623 1210 626 1202

C627 1198 628 1195 628 1194

C628 1191 640 1164 643 1162

C645 1161 650 1157 655 1154

C656 1153 658 1151 659 1149

C662 1145 663 1145 679 1150

C694 1155 701 1157 712 1159

C716 1160 721 1161 723 1161

C726 1162 740 1164 757 1166

C764 1167 822 1168 824 1167

C824 1166 830 1166 836 1166

C843 1165 851 1164 853 1164

C856 1163 864 1162 870 1161

C877 1160 883 1159 884 1158

C886 1157 888 1157 889 1157

C891 1157 897 1155 904 1153

C910 1151 918 1149 921 1148

C923 1147 926 1146 928 1145

C929 1145 932 1144 935 1143

L940 1143

L941 1146

C942 1147 944 1149 946 1150

C947 1151 950 1153 952 1154

C959 1159 962 1163 966 1174

C966 1177 968 1180 969 1181

C969 1183 970 1184 970 1185

C970 1186 971 1188 971 1189

C975 1197 978 1206 980 1214

C983 1229 991 1248 997 1254

C998 1255 1000 1258 1001 1260

C1003 1262 1006 1265 1011 1267

C1018 1271 1018 1271 1029 1271

C1039 1271 1041 1270 1046 1268

C1053 1265 1058 1260 1063 1251

C1066 1244 1067 1243 1067 1233

C1067 1224 1067 1222 1064 1214

C1063 1210 1061 1205 1059 1203

C1058 1202 1056 1199 1056 1197

C1055 1195 1052 1192 1051 1190

C1047 1186 1036 1169 1035 1166

C1035 1165 1033 1163 1032 1162

C1030 1160 1026 1152 1022 1144

C1015 1130 1015 1130 1015 1117

C1015 1104 1016 1100 1018 1100

C1019 1100 1022 1098 1026 1095

C1029 1093 1033 1090 1035 1090

C1036 1089 1038 1087 1039 1086

C1040 1084 1043 1082 1045 1081

C1047 1080 1050 1078 1051 1076

C1053 1074 1056 1072 1057 1071

C1061 1069 1097 1033 1097 1032

C1097 1031 1099 1029 1102 1026

C1105 1022 1107 1019 1107 1019

C1107 1018 1109 1016 1112 1013

C1114 1011 1116 1008 1116 1008

C1116 1007 1117 1006 1119 1004

C1121 1002 1123 998 1124 996

C1129 988 1131 986 1133 983

C1134 982 1135 980 1135 979

C1135 979 1136 977 1138 975

C1140 973 1141 970 1142 969

C1142 967 1144 964 1146 961

C1152 951 1156 942 1159 936

C1160 932 1162 927 1164 925

C1169 914 1171 909 1175 894

C1177 888 1179 887 1188 885

C1197 882 1207 882 1213 884

C1215 884 1218 885 1220 886

C1227 887 1247 894 1253 897

C1259 901 1273 906 1283 908

C1290 909 1305 909 1308 908

C1309 908 1311 907 1314 906

C1324 903 1335 889 1335 878

C1335 875 1335 871 1336 870

C1336 868 1335 865 1333 860

C1331 857 1330 853 1329 852

C1329 849 1318 839 1311 836

C1304 832 1288 829 1263 827

C1234 825 1217 822 1213 819

C1211 818 1209 816 1209 816

C1209 814 1203 809 1201 809

C1201 809 1199 808 1198 806

C1195 803 1195 803 1196 780

C1196 754 1195 722 1192 708

C1191 702 1190 695 1189 692

C1187 680 1184 665 1181 657

C1180 653 1178 646 1177 642

C1175 634 1174 634 1171 625

C1169 621 1168 618 1168 617

C1168 616 1167 614 1159 597

C1153 583 1136 552 1134 549

C1132 547 1131 540 1133 540

C1133 539 1135 536 1136 533

C1139 523 1141 520 1145 517

C1147 516 1151 513 1153 512

C1156 508 1167 501 1168 501

C1168 501 1172 499 1177 496

C1182 493 1186 491 1187 491

C1187 491 1188 490 1189 489

C1190 489 1192 487 1193 486

C1200 483 1206 480 1210 476

C1215 470 1221 467 1224 467

C1227 467 1229 464 1230 457

C1231 454 1231 451 1232 450

C1234 448 1233 435 1231 429

C1230 424 1225 416 1224 416

C1223 416 1222 415 1222 413

C1221 411 1219 410 1219 410

C1218 410 1216 409 1214 407

C1210 403 1210 402 1197 400

C1184 398 1182 398 1178 402

C1176 403 1174 404 1173 404

C1172 404 1171 405 1170 406

C1168 409 1161 416 1159 416

C1158 416 1149 426 1149 428

C1149 428 1139 438 1128 450

C1106 471 1106 471 1098 473

C1093 474 1086 475 1082 476

C1075 476 1075 476 1063 464

C1056 458 1047 450 1043 448

C1039 445 1036 442 1035 442

C1035 441 1033 439 1030 438

C1028 436 1026 435 1026 434

C1025 433 1022 432 1019 430

C1016 429 1013 426 1012 425

C1010 424 1007 422 1005 420

C1002 419 999 417 999 417

C999 417 996 415 994 414

C992 413 989 411 988 410

C985 408 951 391 944 389

C941 388 934 385 931 383

C927 382 921 380 917 379

C913 378 907 376 903 375

C893 371 874 367 857 364

C849 363 842 361 840 360

C839 360 838 357 837 355

C836 352 835 349 834 348

C830 345 829 341 829 324

C829 313 829 305 831 294

C834 276 835 266 835 254

C836 249 837 244 837 242

C838 240 839 239 839 238

C839 237 832 227 830 225

C829 225 829 223 829 221

C829 218 829 217 825 214

C822 212 820 210 820 210

C820 208 814 206 804 204

C794 203 792 203 786 204

C779 206 774 209 768 214

C765 218 764 219 765 221

C765 223 764 224 763 226

C762 228 760 231 759 233

C758 238 758 270 759 277

C761 285 763 300 763 301

C762 302 763 306 764 309

C767 323 766 340 762 346

C761 347 759 350 757 352

C754 359 751 360 729 363

C726 363 721 364 718 365

C714 365 706 367 700 368

C694 370 684 372 680 373

C675 375 669 377 667 377

C663 378 644 385 634 389

C624 393 593 409 590 412

C589 413 587 414 586 414

C585 414 583 415 580 417

C578 419 576 420 575 420

C575 420 573 421 572 423

C571 424 569 425 568 425

C567 425 566 426 565 427

C564 428 560 431 556 434

C551 437 546 441 545 443

C543 445 541 446 540 446

C540 446 537 449 533 452

C530 455 526 459 525 460

C523 461 519 464 516 467

L510 472

L506 470

C504 469 499 468 495 467

C486 466 483 465 476 458

C474 455 471 453 470 453

C469 453 441 426 441 424

C441 423 428 409 422 404

C419 402 412 398 408 396

C399 391 399 391 388 391

C379 391 377 391 372 394

C369 395 367 397 367 397

L367 398

L364 399

C361 400 360 402 359 403

C359 405 358 407 357 408

C356 409 355 410 355 410

C355 411 354 412 353 414

C351 416 351 417 351 428

C352 440 352 441 355 447

C359 455 369 464 379 470

C383 473 387 475 388 476

C388 476 391 478 393 479

C396 480 399 482 400 483

C402 485 405 486 407 488

C412 490 416 493 422 497

C425 499 427 500 428 500

C428 500 430 501 430 503

C431 504 433 505 434 505

C434 505 438 508 442 512

C447 517 449 519 449 522

C450 524 451 527 452 530

C456 536 457 540 454 542

C453 544 452 546 451 547

C450 549 447 553 445 557

C438 567 421 602 417 614

C415 620 412 628 410 633

C407 640 407 643 401 663

C397 681 392 714 390 733

C390 737 390 745 389 751

C389 758 389 767 390 775

C391 783 391 792 391 797

C392 805 392 805 388 808

C386 809 382 812 380 814

C375 819 371 821 364 823

C356 825 325 829 313 829

C289 831 283 832 270 836

C263 839 260 841 252 849

C245 855 244 857 242 863

C238 873 238 882 242 890

C248 902 258 911 269 912

C285 915 306 912 319 905

C321 904 323 903 324 903

C325 903 327 902 328 901

C330 900 334 898 338 897

C341 896 351 893 360 890

C374 886 377 885 384 885

C389 885 393 886 395 886

C396 887 401 888 404 889

C408 889 412 890 412 891

C412 891 414 896 415 901

C417 905 420 913 422 917

C423 921 425 924 425 925

C425 927 440 956 445 964

C447 966 449 970 450 971

C451 973 455 979 459 985

C463 991 466 997 467 998

C467 999 468 1001 470 1002

C472 1004 473 1005 473 1006

C473 1006 475 1009 477 1011

C479 1014 481 1017 481 1017

C481 1017 483 1020 486 1023

C489 1025 492 1029 493 1030

C494 1033 526 1066 528 1066

C528 1066 532 1069 536 1072

C539 1076 543 1079 545 1080

C546 1081 548 1082 549 1083

C550 1084 552 1086 554 1087

C556 1088 558 1090 559 1090

C561 1092 575 1102 579 1104

C582 1105 582 1105 582 1115

C582 1139 583 1137 575 1152

C571 1160 567 1167 566 1168

C565 1169 564 1172 563 1174

C561 1177 560 1179 559 1180

C553 1187 538 1211 535 1219

C531 1227 531 1228 530 1240

C530 1252 530 1253 532 1257

C533 1259 535 1263 536 1264

C538 1268 545 1274 550 1278

C553 1280 554 1280 567 1280

C580 1279 581 1279 587 1276

Z

M554 1272

C550 1270 541 1262 539 1258

C538 1255 538 1252 538 1241

C538 1227 538 1227 541 1220

C545 1213 547 1209 552 1203

C553 1201 554 1199 555 1198

C555 1197 557 1195 559 1193

C561 1191 562 1188 562 1188

C562 1187 563 1186 564 1185

C565 1184 567 1181 568 1178

C570 1176 572 1171 573 1169

C575 1167 577 1163 578 1161

C580 1158 583 1153 585 1148

C590 1140 590 1140 589 1126

C589 1116 589 1112 591 1111

C594 1106 592 1103 582 1098

C579 1096 566 1088 560 1083

C547 1073 542 1070 541 1067

C540 1066 537 1064 534 1062

C528 1058 498 1028 498 1026

C498 1026 495 1022 492 1018

C488 1014 484 1009 482 1007

C480 1004 476 1000 474 997

C469 991 463 982 458 972

C455 968 453 963 452 962

C446 953 433 928 433 925

C433 924 432 922 430 919

C428 915 425 907 419 891

C417 883 417 883 413 882

C411 881 407 881 404 881

C402 881 399 880 397 879

C394 877 379 877 372 879

C369 880 365 882 362 882

C357 883 346 886 342 888

C340 889 337 890 335 890

C333 891 327 893 323 896

C318 898 313 900 312 900

C311 900 309 901 308 902

C306 903 302 904 299 905

C291 906 269 906 265 904

C260 903 251 894 248 888

C246 883 246 881 246 874

C247 868 247 866 250 862

C251 859 253 856 254 855

C255 852 259 848 260 848

C261 848 263 847 264 846

C269 842 285 838 302 837

C318 837 334 835 338 834

C339 834 344 833 349 832

C361 831 361 831 367 829

C370 828 374 827 375 827

C377 827 381 822 385 817

C386 815 389 814 393 813

L399 811

L399 803

C399 799 398 793 398 790

C396 780 396 741 398 730

C398 724 399 716 399 712

C400 705 401 699 404 681

C406 672 410 656 412 648

C413 646 416 638 418 632

C420 626 422 620 423 619

C423 617 424 616 424 615

C424 614 425 612 426 610

C427 607 428 604 429 602

C431 597 447 564 449 563

C449 562 451 560 452 557

C453 554 457 550 460 547

C464 542 465 541 465 538

C465 534 464 533 461 529

C458 526 457 524 456 520

C456 516 455 515 449 508

C445 504 439 500 436 498

C433 496 429 493 428 492

C427 491 424 489 422 488

C419 487 416 485 415 484

C414 482 411 481 409 480

C407 479 403 477 399 474

C396 472 392 470 391 470

C390 470 385 467 380 462

C378 460 376 459 375 459

C373 459 365 450 362 445

C359 440 359 438 359 428

C359 415 359 414 368 405

C375 399 377 398 389 398

C397 398 398 398 406 402

C413 406 416 408 425 417

C431 423 436 428 436 429

C436 430 463 457 464 457

C465 457 468 460 472 464

C482 473 484 474 493 474

C500 474 500 474 504 478

C510 482 514 482 516 478

C518 474 530 462 532 462

C532 462 535 460 537 457

C540 455 543 452 545 451

C546 450 550 448 552 446

C555 443 559 440 561 438

C566 434 581 424 585 423

C586 422 588 421 590 420

C592 418 595 416 614 406

C620 403 625 400 626 400

C626 400 629 399 631 398

C633 397 637 396 639 395

C641 394 643 393 644 393

C645 393 646 392 648 392

C653 389 659 387 687 379

C700 375 722 370 738 369

C745 368 753 367 756 366

C761 366 761 365 762 358

C763 355 764 353 766 350

C773 345 774 338 771 311

C771 306 770 298 769 292

C768 286 767 279 766 276

C766 272 765 263 765 254

C765 234 766 231 776 222

C782 216 782 216 793 215

C804 215 805 215 811 218

C819 222 823 227 825 234

C827 241 828 273 826 281

C824 290 821 322 821 333

C822 341 822 343 824 347

C826 350 828 353 829 353

C831 355 831 357 831 361

C831 367 833 369 839 369

C846 369 865 372 872 373

C876 374 882 376 887 377

C901 381 912 384 921 387

C938 393 941 394 941 395

C942 396 943 396 944 396

C946 396 972 409 973 410

C973 411 977 413 983 416

C988 418 994 421 995 422

C1003 428 1004 429 1007 430

C1011 431 1013 433 1021 439

C1023 441 1025 443 1026 443

C1026 443 1028 445 1030 447

C1032 448 1035 450 1035 450

C1036 450 1038 452 1042 455

C1045 458 1047 460 1048 460

C1048 460 1054 466 1062 473

C1074 485 1075 486 1078 486

C1081 486 1083 485 1085 483

C1088 481 1089 481 1094 481

C1098 481 1101 481 1105 479

C1110 476 1115 472 1141 446

C1168 418 1171 416 1177 413

C1183 410 1185 410 1192 410

C1198 410 1201 410 1205 413

C1218 420 1221 425 1221 438

C1222 452 1220 456 1210 466

C1206 470 1200 475 1198 476

C1195 477 1190 480 1185 483

C1181 485 1177 487 1177 488

C1176 488 1174 490 1171 491

C1161 496 1148 506 1138 514

C1132 520 1130 525 1130 531

C1130 533 1128 535 1126 537

C1122 541 1122 541 1122 545

C1123 547 1124 549 1125 551

C1129 554 1136 565 1136 567

C1136 567 1137 569 1138 570

C1141 574 1153 599 1155 604

C1156 606 1158 610 1158 612

C1159 613 1160 615 1160 616

C1160 617 1161 619 1162 622

C1166 628 1172 650 1177 668

C1177 671 1179 676 1179 678

C1180 681 1182 688 1183 693

C1183 699 1185 706 1185 709

C1188 724 1190 784 1188 794

C1186 802 1186 809 1188 810

C1189 810 1192 812 1195 813

C1200 815 1201 817 1203 820

C1205 824 1209 827 1213 827

C1214 827 1216 827 1217 828

C1228 831 1247 834 1266 834

C1282 835 1305 839 1310 842

C1313 844 1316 847 1323 854

C1327 859 1327 859 1327 872

C1327 882 1327 885 1325 888

C1323 892 1318 896 1311 899

C1306 902 1304 902 1294 902

C1287 901 1282 901 1280 900

C1279 900 1277 899 1276 899

C1274 899 1271 898 1267 896

C1264 894 1259 892 1257 892

C1255 891 1250 889 1246 887

C1241 885 1236 884 1234 883

C1232 883 1230 882 1229 881

C1228 881 1225 880 1222 879

C1219 878 1216 877 1215 876

C1212 874 1195 874 1190 876

C1188 877 1183 878 1179 879

L1172 880

L1171 883

C1170 887 1165 904 1162 911

C1161 913 1160 916 1160 917

C1159 919 1154 929 1152 933

C1152 934 1150 938 1148 943

C1146 948 1143 954 1141 957

C1139 959 1136 964 1135 966

C1134 969 1132 971 1132 972

C1131 973 1130 974 1130 974

C1130 975 1123 985 1122 987

C1121 988 1120 989 1120 989

C1120 990 1119 992 1118 993

C1117 993 1116 995 1116 996

C1116 996 1114 998 1113 1000

C1111 1002 1109 1004 1109 1004

C1109 1005 1108 1007 1107 1008

C1105 1009 1104 1011 1104 1012

C1104 1013 1102 1016 1099 1019

C1096 1021 1093 1025 1092 1026

C1090 1030 1056 1065 1052 1066

C1051 1067 1048 1070 1045 1072

C1043 1075 1039 1078 1037 1079

C1035 1080 1033 1082 1032 1083

C1032 1084 1030 1085 1030 1085

C1029 1085 1026 1087 1023 1089

C1020 1091 1015 1094 1013 1096

C1010 1097 1007 1099 1006 1100

L1004 1102

L1006 1104

C1007 1106 1008 1108 1008 1119

C1008 1133 1008 1133 1012 1141

C1019 1154 1022 1160 1024 1162

C1025 1163 1026 1165 1027 1168

C1028 1170 1030 1173 1032 1174

C1033 1176 1034 1178 1034 1178

C1034 1179 1036 1182 1038 1184

C1040 1187 1042 1189 1042 1190

C1042 1191 1043 1193 1045 1195

C1050 1200 1058 1214 1058 1219

C1060 1226 1059 1242 1058 1246

C1055 1251 1050 1258 1046 1261

C1042 1263 1041 1263 1029 1263

C1017 1263 1016 1263 1012 1261

C1001 1253 994 1241 986 1211

C984 1204 982 1197 981 1196

C980 1194 979 1190 978 1188

C978 1186 977 1183 977 1182

C976 1181 975 1179 974 1177

C973 1175 971 1170 969 1165

C967 1160 964 1156 964 1154

C963 1152 955 1146 952 1146

C950 1146 947 1142 945 1138

L943 1134

L939 1134

C936 1134 934 1135 932 1136

C931 1138 928 1139 926 1139

C923 1140 920 1141 902 1146

C892 1149 872 1154 866 1155

C863 1155 858 1156 856 1156

C847 1159 815 1160 784 1160

C754 1159 750 1159 740 1157

C737 1157 732 1156 728 1155

C711 1152 689 1147 683 1145

C682 1144 678 1143 676 1142

C673 1141 670 1140 669 1139

C667 1139 665 1138 662 1138

C658 1138 656 1140 654 1145

C652 1149 651 1150 646 1152

C640 1154 635 1160 630 1171

C625 1181 611 1221 611 1224

C611 1225 610 1229 609 1233

C607 1237 606 1241 606 1242

C606 1243 605 1244 605 1245

C604 1245 603 1248 602 1250

C602 1252 600 1254 599 1255

C598 1256 597 1258 597 1258

C597 1260 589 1268 583 1270

C579 1273 577 1273 567 1273

C561 1273 555 1272 554 1272

Z

M816 1073

C833 1072 850 1071 852 1070

C852 1069 857 1068 863 1068

C868 1067 873 1066 875 1065

C876 1064 881 1063 887 1062

C902 1059 902 1058 897 1050

C891 1040 889 1038 885 1029

C882 1024 879 1019 878 1018

C877 1016 874 1011 872 1007

C870 1002 867 996 866 995

C864 993 861 988 859 984

C845 957 843 952 841 950

C839 948 838 944 837 942

C835 940 834 936 833 935

C832 934 831 932 831 932

C831 931 829 928 827 925

C825 921 823 918 823 917

C823 915 817 909 810 904

C806 902 805 901 799 901

C792 901 785 904 781 909

C778 912 766 936 764 941

L763 944

L762 944

C762 944 758 951 753 959

C749 968 745 975 744 976

C744 977 743 978 743 978

C743 978 741 983 738 988

C736 993 733 998 732 1000

C731 1002 729 1006 728 1009

C723 1015 722 1017 717 1028

C711 1040 703 1052 701 1054

L699 1056

L700 1058

C701 1060 708 1062 721 1065

C723 1065 728 1067 732 1067

C744 1071 783 1074 794 1073

C796 1073 806 1073 816 1073

Z

M630 1018

C631 1014 633 1009 634 1006

C635 1002 637 997 638 994

C639 991 641 988 641 987

C642 986 644 982 646 978

C647 974 649 970 650 968

C651 965 653 961 654 957

C655 953 657 949 658 948

C658 947 659 944 660 942

C660 940 661 937 663 935

C664 933 666 929 667 926

C673 911 680 894 681 893

C681 892 682 890 682 888

C683 886 685 882 687 878

C691 868 692 858 689 851

C686 845 680 840 675 839

C668 837 652 838 637 842

C634 842 628 843 624 844

C619 845 611 846 605 847

C599 848 592 849 589 850

C586 850 583 850 582 851

C581 851 578 852 575 853

C571 853 566 854 562 855

C558 855 550 857 543 858

C536 859 528 860 526 861

C524 861 518 862 513 863

C503 864 502 865 502 868

C502 871 521 911 523 912

C524 912 525 915 527 918

C532 927 536 934 542 941

C545 945 547 949 547 949

C547 952 594 1001 601 1005

C603 1006 606 1008 608 1010

C610 1012 612 1014 612 1014

C613 1014 616 1016 619 1019

C622 1022 624 1024 626 1024

L629 1024

L630 1018

Z

M984 1014

C988 1010 992 1006 993 1006

C995 1006 1034 967 1034 965

C1034 965 1036 962 1039 959

C1042 956 1046 952 1046 950

C1047 948 1048 947 1049 947

L1050 947

L1050 946

C1050 944 1055 937 1057 934

C1058 933 1060 930 1061 928

C1062 925 1064 923 1065 922

C1065 921 1069 914 1073 907

C1076 900 1080 893 1080 892

C1081 891 1082 889 1083 887

C1083 885 1086 879 1089 874

C1095 863 1094 862 1084 861

C1075 861 1055 858 1018 851

C1012 850 1005 849 1002 848

C998 848 993 847 990 846

C987 846 979 844 974 843

C968 843 961 841 957 840

C953 840 944 839 936 838

C921 838 921 838 916 842

C909 850 906 854 906 861

C906 864 906 867 907 868

C908 870 913 882 914 886

C915 888 916 890 916 891

C918 893 923 904 923 905

C923 906 925 910 926 914

C928 917 930 921 930 922

C930 922 932 926 933 930

C935 934 938 941 940 945

C941 948 944 955 946 959

C947 963 949 967 949 967

C949 968 950 971 952 973

C953 976 954 979 954 979

C954 980 955 983 956 986

C963 1001 966 1008 968 1014

C970 1021 971 1022 974 1022

C975 1022 978 1020 984 1014

Z

M818 801

C825 797 833 793 836 793

C841 791 842 790 845 774

C845 769 847 761 849 757

C850 752 851 747 851 746

C851 742 848 738 843 734

C841 732 839 729 838 728

C837 724 833 720 826 712

C821 707 821 707 798 706

C775 706 775 706 771 709

C769 711 768 713 768 714

C768 715 766 717 765 719

C763 721 761 723 761 723

C761 724 758 727 755 731

C745 740 744 744 749 761

C751 767 752 775 753 778

C753 784 756 791 759 792

C760 792 768 796 777 800

C792 808 793 808 799 808

C805 807 807 806 818 801

Z

M491 786

C492 785 497 783 503 781

C509 779 516 777 518 776

C520 776 525 774 528 774

C530 773 537 771 542 770

C546 768 556 766 562 764

C568 762 575 760 577 759

C578 759 582 758 584 757

C587 757 590 756 593 755

C595 754 598 753 599 753

C601 753 603 752 606 751

C608 751 613 749 617 748

C640 742 651 738 653 733

C658 722 659 718 657 710

C656 706 653 703 644 694

C637 687 631 682 631 682

C630 682 625 678 621 673

C616 668 611 664 611 664

C610 664 605 660 600 654

C594 649 589 645 589 645

C588 645 583 641 578 636

C574 631 568 626 567 625

C565 623 556 616 547 607

L531 591

L529 593

C528 594 525 597 523 601

C522 605 520 609 519 610

C518 611 518 613 517 614

C516 615 516 617 515 618

C514 619 512 624 510 629

C508 634 505 640 505 642

C504 643 502 647 501 651

C500 654 498 660 497 664

C495 667 493 674 493 678

C492 682 490 688 489 691

C489 694 487 701 486 707

C486 713 485 720 484 724

C484 728 483 743 483 758

L483 786

L484 786

C487 787 489 787 491 786

Z

M1108 779

C1108 756 1106 723 1103 709

C1102 702 1098 687 1096 680

C1093 669 1093 666 1090 661

C1089 658 1088 655 1088 654

C1088 654 1087 651 1086 648

C1084 645 1083 642 1083 642

C1083 641 1082 640 1082 638

C1081 637 1080 634 1079 632

C1078 629 1074 621 1071 614

C1067 607 1064 600 1064 599

C1061 594 1059 595 1044 611

C1035 619 1028 626 1027 626

C1027 626 1022 631 1016 636

C1011 642 1005 647 1004 648

C1002 648 998 653 993 657

C988 662 983 667 981 668

C979 669 974 673 970 677

C966 681 962 685 960 686

C959 687 953 692 948 697

C939 706 939 706 939 717

C939 726 939 728 942 732

C943 736 945 738 949 739

C954 742 962 744 969 745

C971 746 974 747 975 748

C976 749 981 750 986 751

C991 752 996 754 997 754

C999 755 1002 756 1006 757

C1010 758 1014 759 1015 760

C1017 760 1019 761 1020 761

C1021 761 1026 762 1030 763

C1038 766 1050 770 1061 773

C1068 775 1082 779 1092 782

C1095 783 1099 785 1101 785

C1102 786 1105 787 1106 787

L1109 787

L1108 779

Z

M736 626

C740 624 744 620 747 614

C749 610 750 593 754 517

C755 495 757 468 758 461

C759 458 759 454 759 452

L759 449

L757 448

C755 448 752 448 749 449

C746 449 741 451 738 451

C734 452 729 453 726 454

C722 454 716 456 711 457

C703 459 685 465 683 466

C683 467 680 468 677 469

C660 475 642 484 625 495

C615 502 613 504 611 505

C610 505 607 507 606 509

C604 510 601 512 600 513

C598 514 596 516 594 518

C593 520 591 521 590 521

C588 521 580 529 580 532

C580 533 582 535 588 538

C593 540 599 544 601 546

C623 561 633 568 635 570

C636 571 637 572 637 572

C638 572 656 584 662 588

C664 590 667 593 669 594

C671 595 674 597 675 599

C677 601 679 602 679 602

C680 602 681 603 682 604

C683 605 686 606 687 607

C694 611 704 618 705 619

C706 620 709 622 711 624

C715 627 716 627 724 627

C729 627 734 626 736 626

Z

M883 625

C889 621 892 619 895 616

C897 614 900 613 900 613

C901 613 903 611 906 609

C911 604 914 602 916 602

C916 602 918 601 919 600

C920 598 922 597 922 597

C923 597 925 596 926 595

C927 594 929 593 930 592

C931 591 934 590 936 588

C943 582 950 577 957 573

C961 570 966 566 968 564

C970 562 972 561 973 561

C974 561 977 559 984 553

C989 549 994 546 1003 542

C1010 538 1010 538 1010 534

L1010 531

L1007 530

L1004 529

L1004 528

C1004 527 1003 526 1001 525

C999 524 997 523 996 522

C996 521 993 519 990 517

C987 515 984 512 983 512

C982 511 979 509 976 507

C973 505 968 502 965 499

C962 497 957 494 955 493

C952 492 950 491 950 490

C949 489 945 487 928 478

C911 470 894 464 872 457

C868 456 861 454 858 453

C854 452 847 451 843 450

L836 450

L836 455

C836 458 836 463 837 467

C838 470 838 481 839 492

C840 507 841 532 843 550

C843 552 843 566 844 581

C845 606 845 608 848 613

C850 617 852 620 855 623

C860 627 860 627 870 627

C878 627 881 626 883 625

Z

M762 1065

C744 1062 734 1061 726 1059

C712 1056 712 1056 711 1055

C711 1054 713 1049 716 1043

C719 1038 722 1032 722 1031

C723 1030 725 1025 728 1021

C731 1016 735 1009 738 1004

C740 999 744 992 746 989

C747 986 752 977 755 970

C759 963 763 956 764 955

C764 954 768 947 772 940

C776 932 780 925 780 924

C781 923 783 920 784 917

C787 913 788 912 793 910

C799 908 801 907 806 910

C811 912 816 917 819 924

C820 927 822 931 823 932

C826 937 833 949 833 951

C833 951 834 952 835 953

C835 954 838 958 841 963

C843 968 846 973 847 974

C847 975 851 982 856 991

C860 999 864 1006 864 1006

C864 1006 867 1011 869 1016

C872 1021 875 1026 875 1027

C876 1028 878 1031 880 1035

C882 1039 884 1043 886 1044

C888 1047 889 1052 887 1054

C884 1056 858 1062 846 1064

C824 1066 775 1067 762 1065

Z

M618 1010

C616 1009 612 1005 609 1002

C607 999 604 997 603 997

C602 997 596 991 589 984

C571 966 567 962 562 957

C560 954 557 950 556 949

C554 948 552 945 551 943

C550 941 548 939 547 938

C546 937 545 935 545 935

C545 934 544 933 543 931

C539 926 536 921 531 912

C529 907 526 903 526 902

C525 902 522 896 516 883

C515 880 514 878 513 878

C513 877 512 876 512 874

L512 871

L518 870

C521 869 526 868 529 867

C531 867 538 866 545 865

C551 864 557 863 559 863

C560 862 564 861 568 861

C571 860 576 859 580 858

C586 857 612 853 625 851

C627 851 632 850 636 849

C653 845 669 844 675 847

C678 848 679 849 681 853

C685 862 684 869 679 880

C677 882 676 885 676 885

C676 886 675 888 674 891

C672 894 671 897 671 898

C671 898 670 900 669 902

C669 903 667 906 666 909

C665 914 659 928 655 935

C653 938 652 942 652 942

C652 943 650 947 649 952

C647 956 645 960 645 961

C645 962 644 965 642 969

C640 972 638 977 638 979

C637 981 635 986 633 991

C631 995 629 999 629 1000

C629 1003 624 1012 623 1012

C622 1012 620 1011 618 1010

Z

M974 1009

C973 1007 967 993 967 992

C967 992 966 990 966 988

C964 986 959 974 954 961

C953 959 950 952 948 948

C946 943 943 936 942 933

C941 929 938 923 936 919

C935 915 933 911 933 911

C933 910 931 907 930 903

C928 899 926 895 926 894

C926 894 924 890 923 886

C921 882 919 879 919 878

C919 877 918 874 916 871

C914 866 913 864 913 859

C914 854 914 853 919 849

C923 845 924 845 928 845

C940 845 945 845 954 847

C963 849 988 853 1001 855

C1004 855 1011 857 1017 858

C1023 859 1030 860 1032 861

C1034 861 1040 862 1044 862

C1059 866 1073 868 1075 868

C1079 868 1081 871 1081 874

C1080 878 1061 916 1058 921

C1056 923 1055 926 1054 928

C1053 930 1050 933 1049 935

C1043 942 1041 945 1041 946

C1041 947 1039 949 1037 951

C1035 953 1033 956 1032 957

C1029 962 993 998 989 1000

C987 1002 985 1004 984 1005

C982 1007 977 1010 976 1010

C975 1010 975 1009 974 1009

Z

M778 794

C770 790 763 786 762 785

C762 784 761 781 760 779

C760 777 758 770 757 766

C752 744 752 742 760 736

C762 734 764 731 766 729

C772 720 775 715 777 714

C779 714 786 713 799 713

C820 714 818 712 831 728

C833 731 837 736 839 738

C844 744 844 746 840 762

C838 769 837 777 836 779

C836 784 836 784 827 789

C822 792 816 794 814 795

C811 796 809 797 807 798

C806 799 803 800 799 800

C794 801 793 801 778 794

Z

M491 775

C490 772 491 724 492 720

C493 717 493 712 494 710

C494 701 496 691 498 684

C500 676 509 648 511 643

C512 641 514 637 515 634

C516 631 518 628 518 627

C519 625 522 620 524 615

C529 605 531 603 532 603

C533 603 539 608 545 614

C552 621 558 627 560 628

C562 630 567 634 571 638

C576 642 581 647 583 649

C585 650 590 655 594 659

C598 662 603 666 605 667

C606 668 611 672 615 676

C618 680 623 684 625 685

C626 687 632 692 638 698

C647 707 649 709 650 713

C652 720 649 729 645 731

C643 732 641 733 640 734

C638 735 622 740 617 741

C615 741 611 742 610 743

C609 743 602 745 596 747

C576 753 574 753 565 756

C560 758 552 760 548 761

C544 762 537 764 533 765

C529 766 521 768 516 770

C511 771 506 772 505 773

C504 773 501 775 497 775

L491 777

L491 775

Z

M1089 774

C1084 772 1078 770 1074 769

C1070 768 1067 767 1067 767

C1066 767 1064 766 1062 766

C1058 765 1054 764 1033 757

C1027 755 1022 754 1021 754

C1021 754 1015 752 1008 750

C1002 748 993 745 990 745

C986 744 980 742 978 742

C976 741 969 739 965 737

C949 733 946 730 946 717

C946 709 946 709 953 702

C957 698 962 694 964 693

C965 692 971 687 976 682

C981 676 986 672 987 672

C987 672 991 668 996 664

C1000 660 1005 655 1007 654

C1008 653 1015 648 1021 642

C1027 636 1033 630 1034 629

C1036 628 1042 623 1047 618

C1053 611 1058 608 1059 608

C1061 609 1068 623 1076 644

C1077 647 1079 650 1080 651

C1080 653 1081 654 1081 655

C1081 655 1082 658 1083 660

C1086 666 1091 687 1093 699

C1094 703 1096 711 1097 715

C1099 728 1102 769 1100 776

L1100 777

L1099 777

C1098 777 1094 776 1089 774

Z

M711 616

C708 614 705 611 704 611

C703 610 701 608 700 607

C698 606 695 605 694 603

C693 602 689 599 686 597

C678 592 674 589 667 584

C663 581 658 578 655 575

C651 573 647 570 646 569

C644 566 641 565 627 556

C625 555 623 553 622 552

C619 549 614 546 607 542

C603 540 599 536 596 534

C591 529 591 527 597 524

C599 522 601 520 602 519

C603 518 605 517 606 517

C607 517 609 515 611 514

C613 512 615 510 616 510

C616 510 618 509 619 508

C620 506 622 505 622 505

C623 505 625 504 626 503

C628 501 630 500 630 500

C631 500 632 499 633 498

C634 498 638 495 641 493

C645 491 649 489 651 488

C652 487 655 485 659 484

C663 482 669 480 673 478

C681 474 707 465 718 462

C740 458 744 457 746 457

L748 458

L749 461

C750 465 749 469 747 511

C745 556 744 567 743 588

C742 608 742 610 739 613

C736 618 734 619 725 620

C718 620 717 620 711 616

Z

M861 618

C854 615 853 610 851 582

C851 573 851 564 851 563

C851 561 850 555 850 550

C849 537 847 508 846 491

C846 483 845 473 844 468

C844 464 843 460 843 459

C845 457 850 458 866 463

C870 464 876 466 879 466

C885 468 897 472 907 476

C915 479 942 493 945 495

C946 496 948 497 950 498

C953 499 954 500 965 508

C969 510 972 512 973 513

C975 513 978 516 980 518

C983 521 986 523 986 523

C988 523 998 534 998 535

C998 536 996 538 993 540

C990 541 987 543 985 544

C984 545 981 547 979 549

C977 551 975 552 975 552

C974 552 972 554 970 556

C967 558 961 562 957 565

C952 568 947 571 946 573

C945 574 943 575 943 575

C942 575 930 583 930 584

C930 585 929 586 927 586

C926 587 923 589 920 591

C918 592 914 594 913 596

C911 597 908 599 906 600

C897 608 892 611 891 611

C891 611 889 612 889 613

C888 614 886 615 886 615

C885 615 884 616 882 617

C880 619 879 620 872 620

C866 620 863 619 861 618

Z

"/>

</svg>

